<svg xmlns="http://www.w3.org/2000/svg" xmlns:xlink="http://www.w3.org/1999/xlink" width="257" zoomAndPan="magnify" viewBox="0 0 192.75 67.499998" height="90" preserveAspectRatio="xMidYMid meet" version="1.0"><defs><g/><clipPath id="6f2acefe73"><path d="M 48 30 L 50.683594 30 L 50.683594 33 L 48 33 Z M 48 30 " clip-rule="nonzero"/></clipPath><clipPath id="51968831a4"><path d="M 47 34 L 50.683594 34 L 50.683594 37 L 47 37 Z M 47 34 " clip-rule="nonzero"/></clipPath><clipPath id="5f54e8b746"><path d="M 4.527344 34 L 7 34 L 7 37 L 4.527344 37 Z M 4.527344 34 " clip-rule="nonzero"/></clipPath><clipPath id="fdcd6400f2"><path d="M 4.527344 30 L 6 30 L 6 32 L 4.527344 32 Z M 4.527344 30 " clip-rule="nonzero"/></clipPath><clipPath id="16e0cf2009"><path d="M 22 9.089844 L 24 9.089844 L 24 10 L 22 10 Z M 22 9.089844 " clip-rule="nonzero"/></clipPath><clipPath id="e3582b40bc"><path d="M 27 9.089844 L 28 9.089844 L 28 10 L 27 10 Z M 27 9.089844 " clip-rule="nonzero"/></clipPath><clipPath id="1a7dc5dc94"><path d="M 31 9.089844 L 32 9.089844 L 32 10 L 31 10 Z M 31 9.089844 " clip-rule="nonzero"/></clipPath></defs><g fill="#ffffff" fill-opacity="1"><g transform="translate(54.552761, 43.180121)"><g><path d="M 9.921875 -17.84375 C 11.171875 -17.84375 12.257812 -17.710938 13.1875 -17.453125 C 14.113281 -17.191406 14.832031 -16.828125 15.34375 -16.359375 C 15.851562 -15.890625 16.109375 -15.328125 16.109375 -14.671875 C 16.109375 -14.234375 15.976562 -13.820312 15.71875 -13.4375 C 15.457031 -13.0625 15.078125 -12.875 14.578125 -12.875 C 14.222656 -12.875 13.929688 -12.921875 13.703125 -13.015625 C 13.472656 -13.117188 13.269531 -13.242188 13.09375 -13.390625 C 12.925781 -13.546875 12.722656 -13.691406 12.484375 -13.828125 C 12.265625 -13.953125 11.929688 -14.050781 11.484375 -14.125 C 11.035156 -14.207031 10.703125 -14.25 10.484375 -14.25 C 9.367188 -14.25 8.421875 -14.007812 7.640625 -13.53125 C 6.867188 -13.050781 6.273438 -12.398438 5.859375 -11.578125 C 5.441406 -10.753906 5.234375 -9.8125 5.234375 -8.75 C 5.234375 -7.695312 5.445312 -6.757812 5.875 -5.9375 C 6.300781 -5.125 6.890625 -4.476562 7.640625 -4 C 8.398438 -3.519531 9.269531 -3.28125 10.25 -3.28125 C 10.789062 -3.28125 11.257812 -3.3125 11.65625 -3.375 C 12.050781 -3.4375 12.378906 -3.535156 12.640625 -3.671875 C 12.941406 -3.847656 13.210938 -4.03125 13.453125 -4.21875 C 13.703125 -4.414062 14.066406 -4.515625 14.546875 -4.515625 C 15.109375 -4.515625 15.539062 -4.332031 15.84375 -3.96875 C 16.15625 -3.613281 16.3125 -3.175781 16.3125 -2.65625 C 16.3125 -2.101562 16.003906 -1.601562 15.390625 -1.15625 C 14.773438 -0.707031 13.972656 -0.347656 12.984375 -0.078125 C 11.992188 0.191406 10.921875 0.328125 9.765625 0.328125 C 8.035156 0.328125 6.535156 -0.0664062 5.265625 -0.859375 C 4.003906 -1.660156 3.03125 -2.75 2.34375 -4.125 C 1.65625 -5.5 1.3125 -7.039062 1.3125 -8.75 C 1.3125 -10.539062 1.675781 -12.117188 2.40625 -13.484375 C 3.132812 -14.847656 4.148438 -15.914062 5.453125 -16.6875 C 6.753906 -17.457031 8.242188 -17.84375 9.921875 -17.84375 Z M 9.921875 -17.84375 "/></g></g></g><g fill="#ffffff" fill-opacity="1"><g transform="translate(71.586553, 43.180121)"><g><path d="M 15.125 -17.515625 C 15.695312 -17.515625 16.164062 -17.320312 16.53125 -16.9375 C 16.90625 -16.5625 17.09375 -16.09375 17.09375 -15.53125 L 17.09375 -7.203125 C 17.09375 -4.890625 16.445312 -3.054688 15.15625 -1.703125 C 13.875 -0.347656 12.019531 0.328125 9.59375 0.328125 C 7.164062 0.328125 5.3125 -0.347656 4.03125 -1.703125 C 2.757812 -3.054688 2.125 -4.890625 2.125 -7.203125 L 2.125 -15.53125 C 2.125 -16.09375 2.3125 -16.5625 2.6875 -16.9375 C 3.0625 -17.320312 3.53125 -17.515625 4.09375 -17.515625 C 4.65625 -17.515625 5.125 -17.320312 5.5 -16.9375 C 5.875 -16.5625 6.0625 -16.09375 6.0625 -15.53125 L 6.0625 -7.203125 C 6.0625 -5.867188 6.351562 -4.878906 6.9375 -4.234375 C 7.53125 -3.597656 8.414062 -3.28125 9.59375 -3.28125 C 10.789062 -3.28125 11.6875 -3.597656 12.28125 -4.234375 C 12.875 -4.878906 13.171875 -5.867188 13.171875 -7.203125 L 13.171875 -15.53125 C 13.171875 -16.09375 13.351562 -16.5625 13.71875 -16.9375 C 14.09375 -17.320312 14.5625 -17.515625 15.125 -17.515625 Z M 15.125 -17.515625 "/></g></g></g><g fill="#ffffff" fill-opacity="1"><g transform="translate(90.815075, 43.180121)"><g><path d="M 11.203125 -17.84375 C 12.734375 -17.84375 14.101562 -17.457031 15.3125 -16.6875 C 16.519531 -15.914062 17.476562 -14.851562 18.1875 -13.5 C 18.894531 -12.144531 19.25 -10.570312 19.25 -8.78125 C 19.25 -6.988281 18.894531 -5.410156 18.1875 -4.046875 C 17.476562 -2.679688 16.53125 -1.609375 15.34375 -0.828125 C 14.15625 -0.0546875 12.816406 0.328125 11.328125 0.328125 C 10.453125 0.328125 9.632812 0.1875 8.875 -0.09375 C 8.113281 -0.382812 7.441406 -0.742188 6.859375 -1.171875 C 6.285156 -1.609375 5.835938 -2.050781 5.515625 -2.5 C 5.203125 -2.945312 5.046875 -3.328125 5.046875 -3.640625 L 6.0625 -4.0625 L 6.0625 4.546875 C 6.0625 5.117188 5.875 5.59375 5.5 5.96875 C 5.125 6.351562 4.65625 6.546875 4.09375 6.546875 C 3.53125 6.546875 3.0625 6.359375 2.6875 5.984375 C 2.3125 5.617188 2.125 5.140625 2.125 4.546875 L 2.125 -15.53125 C 2.125 -16.09375 2.3125 -16.5625 2.6875 -16.9375 C 3.0625 -17.320312 3.53125 -17.515625 4.09375 -17.515625 C 4.65625 -17.515625 5.125 -17.320312 5.5 -16.9375 C 5.875 -16.5625 6.0625 -16.09375 6.0625 -15.53125 L 6.0625 -13.921875 L 5.5 -14.21875 C 5.5 -14.5 5.648438 -14.835938 5.953125 -15.234375 C 6.265625 -15.640625 6.679688 -16.046875 7.203125 -16.453125 C 7.722656 -16.859375 8.328125 -17.191406 9.015625 -17.453125 C 9.703125 -17.710938 10.429688 -17.84375 11.203125 -17.84375 Z M 10.703125 -14.25 C 9.742188 -14.25 8.90625 -14.007812 8.1875 -13.53125 C 7.46875 -13.050781 6.90625 -12.398438 6.5 -11.578125 C 6.09375 -10.753906 5.890625 -9.820312 5.890625 -8.78125 C 5.890625 -7.75 6.09375 -6.8125 6.5 -5.96875 C 6.90625 -5.132812 7.46875 -4.476562 8.1875 -4 C 8.90625 -3.519531 9.742188 -3.28125 10.703125 -3.28125 C 11.671875 -3.28125 12.507812 -3.519531 13.21875 -4 C 13.925781 -4.476562 14.476562 -5.132812 14.875 -5.96875 C 15.28125 -6.8125 15.484375 -7.75 15.484375 -8.78125 C 15.484375 -9.820312 15.28125 -10.753906 14.875 -11.578125 C 14.476562 -12.398438 13.925781 -13.050781 13.21875 -13.53125 C 12.507812 -14.007812 11.671875 -14.25 10.703125 -14.25 Z M 10.703125 -14.25 "/></g></g></g><g fill="#ffffff" fill-opacity="1"><g transform="translate(111.386649, 43.180121)"><g><path d="M 9.921875 -17.84375 C 11.171875 -17.84375 12.257812 -17.710938 13.1875 -17.453125 C 14.113281 -17.191406 14.832031 -16.828125 15.34375 -16.359375 C 15.851562 -15.890625 16.109375 -15.328125 16.109375 -14.671875 C 16.109375 -14.234375 15.976562 -13.820312 15.71875 -13.4375 C 15.457031 -13.0625 15.078125 -12.875 14.578125 -12.875 C 14.222656 -12.875 13.929688 -12.921875 13.703125 -13.015625 C 13.472656 -13.117188 13.269531 -13.242188 13.09375 -13.390625 C 12.925781 -13.546875 12.722656 -13.691406 12.484375 -13.828125 C 12.265625 -13.953125 11.929688 -14.050781 11.484375 -14.125 C 11.035156 -14.207031 10.703125 -14.25 10.484375 -14.25 C 9.367188 -14.25 8.421875 -14.007812 7.640625 -13.53125 C 6.867188 -13.050781 6.273438 -12.398438 5.859375 -11.578125 C 5.441406 -10.753906 5.234375 -9.8125 5.234375 -8.75 C 5.234375 -7.695312 5.445312 -6.757812 5.875 -5.9375 C 6.300781 -5.125 6.890625 -4.476562 7.640625 -4 C 8.398438 -3.519531 9.269531 -3.28125 10.25 -3.28125 C 10.789062 -3.28125 11.257812 -3.3125 11.65625 -3.375 C 12.050781 -3.4375 12.378906 -3.535156 12.640625 -3.671875 C 12.941406 -3.847656 13.210938 -4.03125 13.453125 -4.21875 C 13.703125 -4.414062 14.066406 -4.515625 14.546875 -4.515625 C 15.109375 -4.515625 15.539062 -4.332031 15.84375 -3.96875 C 16.15625 -3.613281 16.3125 -3.175781 16.3125 -2.65625 C 16.3125 -2.101562 16.003906 -1.601562 15.390625 -1.15625 C 14.773438 -0.707031 13.972656 -0.347656 12.984375 -0.078125 C 11.992188 0.191406 10.921875 0.328125 9.765625 0.328125 C 8.035156 0.328125 6.535156 -0.0664062 5.265625 -0.859375 C 4.003906 -1.660156 3.03125 -2.75 2.34375 -4.125 C 1.65625 -5.5 1.3125 -7.039062 1.3125 -8.75 C 1.3125 -10.539062 1.675781 -12.117188 2.40625 -13.484375 C 3.132812 -14.847656 4.148438 -15.914062 5.453125 -16.6875 C 6.753906 -17.457031 8.242188 -17.84375 9.921875 -17.84375 Z M 9.921875 -17.84375 "/></g></g></g><g fill="#ffffff" fill-opacity="1"><g transform="translate(128.42044, 43.180121)"><g><path d="M 16.46875 -17.84375 C 17.039062 -17.84375 17.507812 -17.65625 17.875 -17.28125 C 18.25 -16.914062 18.4375 -16.4375 18.4375 -15.84375 L 18.4375 -2 C 18.4375 -1.425781 18.25 -0.945312 17.875 -0.5625 C 17.507812 -0.1875 17.039062 0 16.46875 0 C 15.90625 0 15.4375 -0.1875 15.0625 -0.5625 C 14.695312 -0.945312 14.515625 -1.425781 14.515625 -2 L 14.515625 -3.609375 L 15.234375 -3.3125 C 15.234375 -3.019531 15.078125 -2.671875 14.765625 -2.265625 C 14.460938 -1.867188 14.046875 -1.472656 13.515625 -1.078125 C 12.992188 -0.679688 12.378906 -0.347656 11.671875 -0.078125 C 10.960938 0.191406 10.191406 0.328125 9.359375 0.328125 C 7.859375 0.328125 6.492188 -0.0546875 5.265625 -0.828125 C 4.046875 -1.609375 3.082031 -2.679688 2.375 -4.046875 C 1.664062 -5.410156 1.3125 -6.976562 1.3125 -8.75 C 1.3125 -10.539062 1.664062 -12.117188 2.375 -13.484375 C 3.082031 -14.847656 4.035156 -15.914062 5.234375 -16.6875 C 6.441406 -17.457031 7.773438 -17.84375 9.234375 -17.84375 C 10.171875 -17.84375 11.03125 -17.703125 11.8125 -17.421875 C 12.601562 -17.140625 13.285156 -16.78125 13.859375 -16.34375 C 14.441406 -15.90625 14.890625 -15.460938 15.203125 -15.015625 C 15.523438 -14.566406 15.6875 -14.191406 15.6875 -13.890625 L 14.515625 -13.453125 L 14.515625 -15.84375 C 14.515625 -16.414062 14.695312 -16.890625 15.0625 -17.265625 C 15.4375 -17.648438 15.90625 -17.84375 16.46875 -17.84375 Z M 9.859375 -3.28125 C 10.816406 -3.28125 11.65625 -3.519531 12.375 -4 C 13.09375 -4.476562 13.65625 -5.128906 14.0625 -5.953125 C 14.46875 -6.785156 14.671875 -7.71875 14.671875 -8.75 C 14.671875 -9.789062 14.46875 -10.726562 14.0625 -11.5625 C 13.65625 -12.394531 13.09375 -13.050781 12.375 -13.53125 C 11.65625 -14.007812 10.816406 -14.25 9.859375 -14.25 C 8.921875 -14.25 8.085938 -14.007812 7.359375 -13.53125 C 6.640625 -13.050781 6.078125 -12.394531 5.671875 -11.5625 C 5.273438 -10.726562 5.078125 -9.789062 5.078125 -8.75 C 5.078125 -7.71875 5.273438 -6.785156 5.671875 -5.953125 C 6.078125 -5.128906 6.640625 -4.476562 7.359375 -4 C 8.085938 -3.519531 8.921875 -3.28125 9.859375 -3.28125 Z M 9.859375 -3.28125 "/></g></g></g><g fill="#ffffff" fill-opacity="1"><g transform="translate(148.992014, 43.180121)"><g><path d="M 4.421875 0 C 3.847656 0 3.375 -0.1875 3 -0.5625 C 2.632812 -0.945312 2.453125 -1.425781 2.453125 -2 L 2.453125 -22.234375 C 2.453125 -22.804688 2.632812 -23.28125 3 -23.65625 C 3.375 -24.039062 3.847656 -24.234375 4.421875 -24.234375 C 4.984375 -24.234375 5.453125 -24.039062 5.828125 -23.65625 C 6.203125 -23.28125 6.390625 -22.804688 6.390625 -22.234375 L 6.390625 -2 C 6.390625 -1.425781 6.203125 -0.945312 5.828125 -0.5625 C 5.453125 -0.1875 4.984375 0 4.421875 0 Z M 14.828125 -17.515625 C 15.335938 -17.515625 15.773438 -17.304688 16.140625 -16.890625 C 16.515625 -16.484375 16.703125 -16.082031 16.703125 -15.6875 C 16.703125 -15.164062 16.441406 -14.675781 15.921875 -14.21875 L 6.0625 -5.140625 L 5.890625 -9.65625 L 13.390625 -16.90625 C 13.804688 -17.3125 14.285156 -17.515625 14.828125 -17.515625 Z M 15.328125 -0.03125 C 14.753906 -0.03125 14.273438 -0.25 13.890625 -0.6875 L 7.828125 -7.109375 L 10.8125 -9.859375 L 16.703125 -3.4375 C 17.117188 -3 17.328125 -2.507812 17.328125 -1.96875 C 17.328125 -1.394531 17.101562 -0.925781 16.65625 -0.5625 C 16.207031 -0.207031 15.765625 -0.03125 15.328125 -0.03125 Z M 15.328125 -0.03125 "/></g></g></g><g fill="#ffffff" fill-opacity="1"><g transform="translate(167.630909, 43.180121)"><g><path d="M 10.375 0.328125 C 8.519531 0.328125 6.910156 -0.0546875 5.546875 -0.828125 C 4.179688 -1.609375 3.132812 -2.664062 2.40625 -4 C 1.675781 -5.332031 1.3125 -6.835938 1.3125 -8.515625 C 1.3125 -10.484375 1.707031 -12.160156 2.5 -13.546875 C 3.300781 -14.929688 4.34375 -15.992188 5.625 -16.734375 C 6.914062 -17.472656 8.285156 -17.84375 9.734375 -17.84375 C 10.835938 -17.84375 11.882812 -17.613281 12.875 -17.15625 C 13.875 -16.695312 14.753906 -16.066406 15.515625 -15.265625 C 16.285156 -14.472656 16.894531 -13.550781 17.34375 -12.5 C 17.789062 -11.457031 18.015625 -10.347656 18.015625 -9.171875 C 17.992188 -8.648438 17.785156 -8.222656 17.390625 -7.890625 C 16.992188 -7.566406 16.535156 -7.40625 16.015625 -7.40625 L 3.5 -7.40625 L 2.515625 -10.671875 L 14.546875 -10.671875 L 13.828125 -10.015625 L 13.828125 -10.90625 C 13.773438 -11.539062 13.546875 -12.109375 13.140625 -12.609375 C 12.742188 -13.109375 12.242188 -13.503906 11.640625 -13.796875 C 11.035156 -14.097656 10.398438 -14.25 9.734375 -14.25 C 9.078125 -14.25 8.460938 -14.160156 7.890625 -13.984375 C 7.328125 -13.804688 6.835938 -13.507812 6.421875 -13.09375 C 6.003906 -12.6875 5.675781 -12.128906 5.4375 -11.421875 C 5.195312 -10.722656 5.078125 -9.84375 5.078125 -8.78125 C 5.078125 -7.601562 5.320312 -6.601562 5.8125 -5.78125 C 6.300781 -4.957031 6.929688 -4.332031 7.703125 -3.90625 C 8.484375 -3.488281 9.3125 -3.28125 10.1875 -3.28125 C 10.988281 -3.28125 11.628906 -3.34375 12.109375 -3.46875 C 12.597656 -3.601562 12.988281 -3.757812 13.28125 -3.9375 C 13.570312 -4.125 13.835938 -4.285156 14.078125 -4.421875 C 14.472656 -4.617188 14.847656 -4.71875 15.203125 -4.71875 C 15.679688 -4.71875 16.078125 -4.550781 16.390625 -4.21875 C 16.703125 -3.894531 16.859375 -3.515625 16.859375 -3.078125 C 16.859375 -2.484375 16.554688 -1.945312 15.953125 -1.46875 C 15.378906 -0.988281 14.578125 -0.566406 13.546875 -0.203125 C 12.523438 0.148438 11.46875 0.328125 10.375 0.328125 Z M 10.375 0.328125 "/></g></g></g><g clip-path="url(#6f2acefe73)"><path fill="#ffffff" d="M 49.253906 32.300781 C 48.625 32.300781 48.117188 31.792969 48.117188 31.164062 C 48.117188 30.535156 48.625 30.027344 49.253906 30.027344 C 49.878906 30.027344 50.390625 30.535156 50.390625 31.164062 C 50.390625 31.792969 49.878906 32.300781 49.253906 32.300781 Z M 49.253906 32.300781 " fill-opacity="1" fill-rule="nonzero"/></g><g clip-path="url(#51968831a4)"><path fill="#ffffff" d="M 49.878906 34.8125 C 49.964844 34.949219 50.019531 35.101562 50.046875 35.261719 C 50.074219 35.421875 50.066406 35.582031 50.03125 35.738281 C 49.992188 35.898438 49.925781 36.042969 49.832031 36.175781 C 49.734375 36.308594 49.617188 36.417969 49.480469 36.503906 C 49.339844 36.589844 49.191406 36.644531 49.03125 36.667969 C 48.871094 36.695312 48.710938 36.691406 48.550781 36.652344 C 48.394531 36.617188 48.25 36.550781 48.117188 36.453125 C 47.984375 36.359375 47.875 36.242188 47.789062 36.101562 C 47.703125 35.964844 47.648438 35.816406 47.621094 35.65625 C 47.597656 35.492188 47.601562 35.332031 47.640625 35.175781 C 47.675781 35.015625 47.742188 34.871094 47.835938 34.738281 C 47.933594 34.609375 48.050781 34.5 48.1875 34.414062 C 48.328125 34.328125 48.476562 34.273438 48.636719 34.246094 C 48.796875 34.21875 48.957031 34.226562 49.117188 34.261719 C 49.273438 34.300781 49.421875 34.367188 49.550781 34.460938 C 49.683594 34.558594 49.792969 34.671875 49.878906 34.8125 Z M 49.878906 34.8125 " fill-opacity="1" fill-rule="nonzero"/></g><path fill="#ffffff" d="M 48.902344 39.582031 C 48.902344 39.757812 48.867188 39.925781 48.800781 40.085938 C 48.734375 40.25 48.640625 40.390625 48.515625 40.515625 C 48.390625 40.640625 48.25 40.734375 48.089844 40.800781 C 47.925781 40.867188 47.757812 40.902344 47.582031 40.902344 C 47.410156 40.902344 47.242188 40.867188 47.078125 40.800781 C 46.917969 40.734375 46.773438 40.640625 46.652344 40.515625 C 46.527344 40.390625 46.433594 40.25 46.367188 40.085938 C 46.296875 39.925781 46.265625 39.757812 46.265625 39.582031 C 46.265625 39.410156 46.296875 39.238281 46.367188 39.078125 C 46.433594 38.917969 46.527344 38.773438 46.652344 38.652344 C 46.773438 38.527344 46.917969 38.433594 47.078125 38.363281 C 47.242188 38.296875 47.410156 38.265625 47.582031 38.265625 C 47.757812 38.265625 47.925781 38.296875 48.089844 38.363281 C 48.25 38.433594 48.390625 38.527344 48.515625 38.652344 C 48.640625 38.773438 48.734375 38.917969 48.800781 39.078125 C 48.867188 39.238281 48.902344 39.410156 48.902344 39.582031 Z M 48.902344 39.582031 " fill-opacity="1" fill-rule="nonzero"/><path fill="#ffffff" d="M 45.546875 44.789062 C 44.773438 44.789062 44.144531 44.160156 44.144531 43.382812 C 44.144531 42.609375 44.773438 41.980469 45.546875 41.980469 C 46.324219 41.980469 46.953125 42.609375 46.953125 43.382812 C 46.953125 44.160156 46.324219 44.789062 45.546875 44.789062 Z M 45.546875 44.789062 " fill-opacity="1" fill-rule="nonzero"/><path fill="#ffffff" d="M 43.089844 45.265625 C 43.28125 45.300781 43.457031 45.375 43.621094 45.480469 C 43.785156 45.589844 43.921875 45.722656 44.03125 45.886719 C 44.140625 46.046875 44.214844 46.222656 44.253906 46.414062 C 44.292969 46.605469 44.296875 46.800781 44.257812 46.992188 C 44.222656 47.183594 44.148438 47.359375 44.042969 47.523438 C 43.933594 47.6875 43.800781 47.824219 43.636719 47.933594 C 43.476562 48.042969 43.296875 48.117188 43.105469 48.15625 C 42.914062 48.195312 42.722656 48.199219 42.53125 48.160156 C 42.339844 48.125 42.160156 48.050781 42 47.945312 C 41.835938 47.835938 41.699219 47.703125 41.589844 47.539062 C 41.480469 47.378906 41.40625 47.199219 41.367188 47.007812 C 41.324219 46.816406 41.324219 46.625 41.363281 46.433594 C 41.398438 46.242188 41.472656 46.0625 41.578125 45.902344 C 41.6875 45.738281 41.820312 45.601562 41.984375 45.492188 C 42.144531 45.382812 42.320312 45.308594 42.515625 45.265625 C 42.707031 45.226562 42.898438 45.226562 43.089844 45.265625 Z M 43.089844 45.265625 " fill-opacity="1" fill-rule="nonzero"/><path fill="#ffffff" d="M 40.988281 49.265625 C 41.015625 49.464844 41 49.664062 40.945312 49.859375 C 40.890625 50.050781 40.804688 50.230469 40.679688 50.386719 C 40.554688 50.546875 40.40625 50.675781 40.230469 50.777344 C 40.054688 50.875 39.867188 50.9375 39.664062 50.960938 C 39.464844 50.984375 39.269531 50.972656 39.074219 50.917969 C 38.878906 50.863281 38.703125 50.773438 38.542969 50.652344 C 38.382812 50.527344 38.253906 50.375 38.15625 50.203125 C 38.054688 50.027344 37.996094 49.835938 37.96875 49.636719 C 37.945312 49.4375 37.960938 49.238281 38.011719 49.046875 C 38.066406 48.851562 38.15625 48.675781 38.28125 48.515625 C 38.40625 48.355469 38.554688 48.226562 38.730469 48.128906 C 38.90625 48.027344 39.09375 47.964844 39.292969 47.941406 C 39.492188 47.917969 39.691406 47.929688 39.886719 47.984375 C 40.082031 48.039062 40.257812 48.128906 40.414062 48.253906 C 40.574219 48.375 40.703125 48.527344 40.804688 48.703125 C 40.902344 48.878906 40.964844 49.066406 40.988281 49.265625 Z M 40.988281 49.265625 " fill-opacity="1" fill-rule="nonzero"/><path fill="#ffffff" d="M 37.21875 51.488281 C 37.21875 51.691406 37.179688 51.890625 37.101562 52.078125 C 37.023438 52.265625 36.910156 52.433594 36.765625 52.578125 C 36.621094 52.722656 36.457031 52.832031 36.265625 52.910156 C 36.078125 52.988281 35.882812 53.027344 35.679688 53.027344 C 35.472656 53.027344 35.277344 52.988281 35.089844 52.910156 C 34.902344 52.832031 34.734375 52.722656 34.589844 52.578125 C 34.445312 52.433594 34.335938 52.265625 34.257812 52.078125 C 34.179688 51.890625 34.140625 51.691406 34.140625 51.488281 C 34.140625 51.285156 34.179688 51.089844 34.257812 50.898438 C 34.335938 50.710938 34.445312 50.542969 34.589844 50.402344 C 34.734375 50.257812 34.902344 50.144531 35.089844 50.066406 C 35.277344 49.988281 35.472656 49.949219 35.679688 49.949219 C 35.882812 49.949219 36.078125 49.988281 36.265625 50.066406 C 36.457031 50.144531 36.621094 50.257812 36.765625 50.402344 C 36.910156 50.542969 37.023438 50.710938 37.101562 50.898438 C 37.179688 51.089844 37.21875 51.285156 37.21875 51.488281 Z M 37.21875 51.488281 " fill-opacity="1" fill-rule="nonzero"/><path fill="#ffffff" d="M 33.078125 52.738281 C 33.078125 52.941406 33.039062 53.136719 32.964844 53.324219 C 32.886719 53.511719 32.773438 53.675781 32.632812 53.820312 C 32.488281 53.960938 32.324219 54.074219 32.136719 54.148438 C 31.949219 54.226562 31.753906 54.265625 31.550781 54.265625 C 31.347656 54.265625 31.152344 54.226562 30.964844 54.148438 C 30.78125 54.074219 30.613281 53.960938 30.472656 53.820312 C 30.328125 53.675781 30.21875 53.511719 30.140625 53.324219 C 30.0625 53.136719 30.023438 52.941406 30.023438 52.738281 C 30.023438 52.535156 30.0625 52.339844 30.140625 52.152344 C 30.21875 51.964844 30.328125 51.800781 30.472656 51.65625 C 30.613281 51.515625 30.78125 51.402344 30.964844 51.328125 C 31.152344 51.25 31.347656 51.210938 31.550781 51.210938 C 31.753906 51.210938 31.949219 51.25 32.136719 51.328125 C 32.324219 51.402344 32.488281 51.515625 32.632812 51.65625 C 32.773438 51.800781 32.886719 51.964844 32.964844 52.152344 C 33.039062 52.339844 33.078125 52.535156 33.078125 52.738281 Z M 33.078125 52.738281 " fill-opacity="1" fill-rule="nonzero"/><path fill="#ffffff" d="M 28.316406 52.097656 C 28.457031 52.238281 28.566406 52.402344 28.640625 52.585938 C 28.71875 52.765625 28.753906 52.957031 28.753906 53.15625 C 28.753906 53.355469 28.71875 53.546875 28.640625 53.730469 C 28.566406 53.914062 28.457031 54.074219 28.316406 54.214844 C 28.175781 54.355469 28.015625 54.460938 27.832031 54.539062 C 27.648438 54.613281 27.457031 54.652344 27.257812 54.652344 C 27.0625 54.652344 26.871094 54.613281 26.6875 54.539062 C 26.503906 54.460938 26.34375 54.355469 26.203125 54.214844 C 26.0625 54.074219 25.953125 53.914062 25.878906 53.730469 C 25.800781 53.546875 25.761719 53.355469 25.761719 53.15625 C 25.761719 52.957031 25.800781 52.765625 25.878906 52.585938 C 25.953125 52.402344 26.0625 52.238281 26.203125 52.097656 C 26.34375 51.957031 26.503906 51.851562 26.6875 51.773438 C 26.871094 51.699219 27.0625 51.660156 27.257812 51.660156 C 27.457031 51.660156 27.648438 51.699219 27.832031 51.773438 C 28.015625 51.851562 28.175781 51.957031 28.316406 52.097656 Z M 28.316406 52.097656 " fill-opacity="1" fill-rule="nonzero"/><path fill="#ffffff" d="M 23.988281 51.71875 C 24.125 51.851562 24.226562 52.007812 24.300781 52.1875 C 24.375 52.363281 24.410156 52.546875 24.410156 52.738281 C 24.410156 52.929688 24.375 53.113281 24.300781 53.289062 C 24.226562 53.46875 24.125 53.621094 23.988281 53.757812 C 23.851562 53.894531 23.695312 53.996094 23.519531 54.070312 C 23.34375 54.144531 23.160156 54.179688 22.96875 54.179688 C 22.777344 54.179688 22.59375 54.144531 22.414062 54.070312 C 22.238281 53.996094 22.082031 53.894531 21.949219 53.757812 C 21.8125 53.621094 21.707031 53.46875 21.636719 53.289062 C 21.5625 53.113281 21.523438 52.929688 21.523438 52.738281 C 21.523438 52.546875 21.5625 52.363281 21.636719 52.1875 C 21.707031 52.007812 21.8125 51.851562 21.949219 51.71875 C 22.082031 51.582031 22.238281 51.476562 22.414062 51.40625 C 22.59375 51.332031 22.777344 51.296875 22.96875 51.296875 C 23.160156 51.296875 23.34375 51.332031 23.519531 51.40625 C 23.695312 51.476562 23.851562 51.582031 23.988281 51.71875 Z M 23.988281 51.71875 " fill-opacity="1" fill-rule="nonzero"/><path fill="#ffffff" d="M 19.15625 50.152344 C 19.332031 50.195312 19.496094 50.269531 19.644531 50.375 C 19.792969 50.484375 19.914062 50.613281 20.011719 50.769531 C 20.105469 50.925781 20.167969 51.09375 20.199219 51.273438 C 20.226562 51.453125 20.222656 51.632812 20.179688 51.808594 C 20.136719 51.984375 20.0625 52.148438 19.957031 52.296875 C 19.847656 52.445312 19.71875 52.566406 19.5625 52.664062 C 19.40625 52.757812 19.242188 52.820312 19.058594 52.851562 C 18.878906 52.878906 18.703125 52.871094 18.523438 52.832031 C 18.347656 52.789062 18.183594 52.714844 18.035156 52.609375 C 17.886719 52.5 17.765625 52.371094 17.671875 52.214844 C 17.574219 52.058594 17.511719 51.894531 17.480469 51.710938 C 17.453125 51.53125 17.460938 51.355469 17.5 51.175781 C 17.542969 51 17.617188 50.835938 17.722656 50.6875 C 17.832031 50.539062 17.960938 50.417969 18.117188 50.320312 C 18.273438 50.226562 18.441406 50.164062 18.621094 50.132812 C 18.800781 50.105469 18.980469 50.113281 19.15625 50.152344 Z M 19.15625 50.152344 " fill-opacity="1" fill-rule="nonzero"/><path fill="#ffffff" d="M 15.199219 48.167969 C 15.367188 48.1875 15.527344 48.242188 15.679688 48.328125 C 15.828125 48.410156 15.953125 48.519531 16.058594 48.65625 C 16.167969 48.792969 16.242188 48.941406 16.289062 49.109375 C 16.332031 49.273438 16.347656 49.441406 16.324219 49.609375 C 16.304688 49.78125 16.25 49.941406 16.167969 50.089844 C 16.082031 50.238281 15.972656 50.367188 15.835938 50.472656 C 15.703125 50.578125 15.550781 50.65625 15.386719 50.699219 C 15.21875 50.746094 15.050781 50.757812 14.882812 50.738281 C 14.710938 50.71875 14.550781 50.664062 14.402344 50.578125 C 14.253906 50.496094 14.125 50.386719 14.019531 50.25 C 13.914062 50.113281 13.839844 49.964844 13.792969 49.796875 C 13.746094 49.632812 13.734375 49.464844 13.753906 49.296875 C 13.777344 49.125 13.828125 48.964844 13.914062 48.816406 C 14 48.664062 14.109375 48.539062 14.242188 48.433594 C 14.378906 48.328125 14.53125 48.25 14.695312 48.207031 C 14.859375 48.160156 15.027344 48.148438 15.199219 48.167969 Z M 15.199219 48.167969 " fill-opacity="1" fill-rule="nonzero"/><path fill="#ffffff" d="M 12.898438 46.570312 C 12.917969 46.726562 12.90625 46.882812 12.863281 47.035156 C 12.820312 47.1875 12.753906 47.328125 12.652344 47.453125 C 12.554688 47.578125 12.4375 47.679688 12.300781 47.757812 C 12.160156 47.835938 12.011719 47.886719 11.855469 47.90625 C 11.699219 47.925781 11.542969 47.914062 11.390625 47.871094 C 11.234375 47.828125 11.097656 47.757812 10.972656 47.660156 C 10.847656 47.5625 10.742188 47.445312 10.664062 47.304688 C 10.585938 47.167969 10.539062 47.019531 10.519531 46.863281 C 10.5 46.703125 10.511719 46.546875 10.554688 46.394531 C 10.597656 46.242188 10.664062 46.101562 10.765625 45.976562 C 10.863281 45.851562 10.980469 45.75 11.117188 45.671875 C 11.257812 45.59375 11.40625 45.542969 11.5625 45.523438 C 11.71875 45.503906 11.875 45.515625 12.027344 45.558594 C 12.183594 45.601562 12.320312 45.671875 12.445312 45.769531 C 12.570312 45.867188 12.675781 45.984375 12.753906 46.125 C 12.832031 46.261719 12.878906 46.410156 12.898438 46.570312 Z M 12.898438 46.570312 " fill-opacity="1" fill-rule="nonzero"/><path fill="#ffffff" d="M 8.972656 44.46875 C 8.371094 44.46875 7.882812 43.984375 7.882812 43.382812 C 7.882812 42.78125 8.371094 42.296875 8.972656 42.296875 C 9.570312 42.296875 10.058594 42.78125 10.058594 43.382812 C 10.058594 43.984375 9.570312 44.46875 8.972656 44.46875 Z M 8.972656 44.46875 " fill-opacity="1" fill-rule="nonzero"/><path fill="#ffffff" d="M 7.15625 38.640625 C 7.417969 38.703125 7.621094 38.847656 7.761719 39.074219 C 7.902344 39.304688 7.941406 39.546875 7.878906 39.808594 C 7.816406 40.070312 7.671875 40.269531 7.445312 40.410156 C 7.21875 40.550781 6.972656 40.589844 6.710938 40.53125 C 6.449219 40.46875 6.25 40.324219 6.109375 40.09375 C 5.96875 39.867188 5.929688 39.621094 5.992188 39.363281 C 6.050781 39.101562 6.195312 38.902344 6.425781 38.757812 C 6.652344 38.617188 6.898438 38.578125 7.15625 38.640625 Z M 7.15625 38.640625 " fill-opacity="1" fill-rule="nonzero"/><g clip-path="url(#5f54e8b746)"><path fill="#ffffff" d="M 6.46875 35.132812 C 6.554688 35.347656 6.554688 35.5625 6.46875 35.777344 C 6.378906 35.996094 6.226562 36.148438 6.007812 36.238281 C 5.792969 36.324219 5.578125 36.324219 5.363281 36.238281 C 5.148438 36.148438 4.996094 35.996094 4.90625 35.777344 C 4.816406 35.5625 4.816406 35.347656 4.90625 35.132812 C 4.996094 34.917969 5.148438 34.765625 5.363281 34.675781 C 5.578125 34.585938 5.792969 34.585938 6.007812 34.675781 C 6.226562 34.765625 6.378906 34.917969 6.46875 35.132812 Z M 6.46875 35.132812 " fill-opacity="1" fill-rule="nonzero"/></g><g clip-path="url(#fdcd6400f2)"><path fill="#ffffff" d="M 5.265625 31.882812 C 4.871094 31.882812 4.550781 31.5625 4.550781 31.164062 C 4.550781 30.769531 4.871094 30.445312 5.265625 30.445312 C 5.664062 30.445312 5.984375 30.769531 5.984375 31.164062 C 5.984375 31.5625 5.664062 31.882812 5.265625 31.882812 Z M 5.265625 31.882812 " fill-opacity="1" fill-rule="nonzero"/></g><path fill="#ffffff" d="M 5.6875 27.46875 C 5.355469 27.46875 5.089844 27.203125 5.089844 26.875 C 5.089844 26.542969 5.359375 26.277344 5.6875 26.277344 C 6.015625 26.277344 6.28125 26.546875 6.28125 26.875 C 6.28125 27.203125 6.015625 27.46875 5.6875 27.46875 Z M 5.6875 27.46875 " fill-opacity="1" fill-rule="nonzero"/><path fill="#ffffff" d="M 6.9375 23.222656 C 6.671875 23.222656 6.460938 23.007812 6.460938 22.746094 C 6.460938 22.484375 6.675781 22.273438 6.9375 22.273438 C 7.199219 22.273438 7.410156 22.484375 7.410156 22.746094 C 7.410156 23.007812 7.199219 23.222656 6.9375 23.222656 Z M 6.9375 23.222656 " fill-opacity="1" fill-rule="nonzero"/><path fill="#ffffff" d="M 8.972656 19.3125 C 8.769531 19.3125 8.601562 19.148438 8.601562 18.945312 C 8.601562 18.742188 8.769531 18.578125 8.972656 18.578125 C 9.175781 18.578125 9.339844 18.742188 9.339844 18.945312 C 9.339844 19.148438 9.175781 19.3125 8.972656 19.3125 Z M 8.972656 19.3125 " fill-opacity="1" fill-rule="nonzero"/><path fill="#ffffff" d="M 11.988281 15.613281 C 11.988281 15.691406 11.960938 15.753906 11.90625 15.808594 C 11.851562 15.863281 11.785156 15.890625 11.710938 15.890625 C 11.632812 15.890625 11.566406 15.863281 11.511719 15.808594 C 11.457031 15.753906 11.429688 15.691406 11.429688 15.613281 C 11.429688 15.535156 11.457031 15.472656 11.511719 15.417969 C 11.566406 15.363281 11.632812 15.335938 11.710938 15.335938 C 11.785156 15.335938 11.851562 15.363281 11.90625 15.417969 C 11.960938 15.472656 11.988281 15.535156 11.988281 15.613281 Z M 11.988281 15.613281 " fill-opacity="1" fill-rule="nonzero"/><path fill="#ffffff" d="M 15.042969 13.078125 C 14.929688 13.078125 14.839844 12.988281 14.839844 12.875 C 14.839844 12.765625 14.929688 12.671875 15.042969 12.671875 C 15.152344 12.671875 15.246094 12.765625 15.246094 12.875 C 15.246094 12.988281 15.152344 13.078125 15.042969 13.078125 Z M 15.042969 13.078125 " fill-opacity="1" fill-rule="nonzero"/><path fill="#ffffff" d="M 18.84375 10.984375 C 18.761719 10.984375 18.699219 10.921875 18.699219 10.839844 C 18.699219 10.761719 18.761719 10.695312 18.84375 10.695312 C 18.921875 10.695312 18.988281 10.761719 18.988281 10.839844 C 18.988281 10.921875 18.921875 10.984375 18.84375 10.984375 Z M 18.84375 10.984375 " fill-opacity="1" fill-rule="nonzero"/><g clip-path="url(#16e0cf2009)"><path fill="#ffffff" d="M 22.96875 9.695312 C 22.910156 9.695312 22.863281 9.648438 22.863281 9.589844 C 22.863281 9.535156 22.910156 9.484375 22.96875 9.484375 C 23.027344 9.484375 23.074219 9.535156 23.074219 9.589844 C 23.074219 9.648438 23.027344 9.695312 22.96875 9.695312 Z M 22.96875 9.695312 " fill-opacity="1" fill-rule="nonzero"/></g><g clip-path="url(#e3582b40bc)"><path fill="#ffffff" d="M 27.261719 9.25 C 27.214844 9.25 27.179688 9.214844 27.179688 9.171875 C 27.179688 9.128906 27.214844 9.089844 27.261719 9.089844 C 27.304688 9.089844 27.339844 9.125 27.339844 9.171875 C 27.339844 9.214844 27.304688 9.25 27.261719 9.25 Z M 27.261719 9.25 " fill-opacity="1" fill-rule="nonzero"/></g><g clip-path="url(#1a7dc5dc94)"><path fill="#ffffff" d="M 31.550781 9.6875 C 31.5 9.6875 31.457031 9.644531 31.457031 9.589844 C 31.457031 9.539062 31.5 9.496094 31.550781 9.496094 C 31.605469 9.496094 31.648438 9.539062 31.648438 9.589844 C 31.648438 9.644531 31.605469 9.6875 31.550781 9.6875 Z M 31.550781 9.6875 " fill-opacity="1" fill-rule="nonzero"/></g><path fill="#ffffff" d="M 35.679688 11.011719 C 35.582031 11.011719 35.507812 10.933594 35.507812 10.839844 C 35.507812 10.746094 35.582031 10.667969 35.679688 10.667969 C 35.773438 10.667969 35.847656 10.746094 35.847656 10.839844 C 35.847656 10.933594 35.773438 11.011719 35.679688 11.011719 Z M 35.679688 11.011719 " fill-opacity="1" fill-rule="nonzero"/><path fill="#ffffff" d="M 39.480469 13.179688 C 39.3125 13.179688 39.175781 13.046875 39.175781 12.878906 C 39.175781 12.707031 39.3125 12.574219 39.480469 12.574219 C 39.648438 12.574219 39.785156 12.707031 39.785156 12.878906 C 39.785156 13.042969 39.648438 13.179688 39.480469 13.179688 Z M 39.480469 13.179688 " fill-opacity="1" fill-rule="nonzero"/><path fill="#ffffff" d="M 42.8125 16.097656 C 42.542969 16.097656 42.328125 15.882812 42.328125 15.613281 C 42.328125 15.34375 42.542969 15.128906 42.8125 15.128906 C 43.078125 15.128906 43.296875 15.34375 43.296875 15.613281 C 43.296875 15.882812 43.078125 16.097656 42.8125 16.097656 Z M 42.8125 16.097656 " fill-opacity="1" fill-rule="nonzero"/><path fill="#ffffff" d="M 45.707031 18.28125 C 45.890625 18.328125 46.035156 18.429688 46.132812 18.589844 C 46.230469 18.75 46.261719 18.921875 46.21875 19.105469 C 46.171875 19.289062 46.070312 19.429688 45.910156 19.53125 C 45.75 19.628906 45.578125 19.65625 45.394531 19.613281 C 45.210938 19.570312 45.070312 19.46875 44.96875 19.308594 C 44.871094 19.148438 44.84375 18.976562 44.886719 18.792969 C 44.929688 18.605469 45.03125 18.464844 45.191406 18.367188 C 45.351562 18.265625 45.523438 18.238281 45.707031 18.28125 Z M 45.707031 18.28125 " fill-opacity="1" fill-rule="nonzero"/><path fill="#ffffff" d="M 47.785156 21.902344 C 48.019531 21.957031 48.203125 22.085938 48.328125 22.292969 C 48.453125 22.496094 48.488281 22.714844 48.433594 22.949219 C 48.378906 23.183594 48.25 23.363281 48.042969 23.492188 C 47.839844 23.617188 47.621094 23.652344 47.386719 23.597656 C 47.152344 23.542969 46.972656 23.414062 46.847656 23.207031 C 46.71875 23.003906 46.683594 22.785156 46.738281 22.550781 C 46.792969 22.316406 46.925781 22.136719 47.128906 22.007812 C 47.332031 21.882812 47.554688 21.847656 47.785156 21.902344 Z M 47.785156 21.902344 " fill-opacity="1" fill-rule="nonzero"/><path fill="#ffffff" d="M 48.835938 27.898438 C 48.269531 27.898438 47.808594 27.4375 47.808594 26.875 C 47.808594 26.308594 48.269531 25.847656 48.835938 25.847656 C 49.398438 25.847656 49.859375 26.308594 49.859375 26.875 C 49.859375 27.4375 49.398438 27.898438 48.835938 27.898438 Z M 48.835938 27.898438 " fill-opacity="1" fill-rule="nonzero"/><path fill="#ffffff" d="M 40.265625 17.140625 C 40.414062 17.15625 40.554688 17.199219 40.6875 17.269531 C 40.820312 17.34375 40.9375 17.4375 41.03125 17.550781 C 41.128906 17.667969 41.195312 17.800781 41.242188 17.945312 C 41.285156 18.089844 41.296875 18.234375 41.285156 18.386719 C 41.269531 18.535156 41.226562 18.675781 41.15625 18.808594 C 41.082031 18.941406 40.988281 19.058594 40.875 19.152344 C 40.757812 19.25 40.625 19.316406 40.480469 19.363281 C 40.335938 19.40625 40.191406 19.417969 40.039062 19.40625 C 39.890625 19.390625 39.75 19.347656 39.617188 19.277344 C 39.484375 19.203125 39.367188 19.109375 39.273438 18.996094 C 39.175781 18.878906 39.109375 18.746094 39.0625 18.601562 C 39.019531 18.457031 39.007812 18.3125 39.019531 18.160156 C 39.035156 18.011719 39.078125 17.871094 39.148438 17.738281 C 39.222656 17.605469 39.316406 17.488281 39.429688 17.394531 C 39.546875 17.296875 39.679688 17.230469 39.824219 17.183594 C 39.96875 17.140625 40.113281 17.128906 40.265625 17.140625 Z M 40.265625 17.140625 " fill-opacity="1" fill-rule="nonzero"/><path fill="#ffffff" d="M 43.929688 21.113281 C 43.996094 21.265625 44.027344 21.425781 44.027344 21.589844 C 44.027344 21.753906 43.996094 21.914062 43.929688 22.066406 C 43.867188 22.21875 43.777344 22.355469 43.660156 22.472656 C 43.546875 22.585938 43.410156 22.675781 43.257812 22.742188 C 43.105469 22.804688 42.945312 22.835938 42.78125 22.835938 C 42.617188 22.835938 42.457031 22.804688 42.304688 22.742188 C 42.152344 22.675781 42.019531 22.585938 41.902344 22.472656 C 41.785156 22.355469 41.695312 22.21875 41.632812 22.066406 C 41.570312 21.914062 41.535156 21.753906 41.535156 21.589844 C 41.535156 21.425781 41.570312 21.265625 41.632812 21.113281 C 41.695312 20.960938 41.785156 20.828125 41.902344 20.710938 C 42.019531 20.59375 42.152344 20.503906 42.304688 20.441406 C 42.457031 20.378906 42.617188 20.347656 42.78125 20.347656 C 42.945312 20.347656 43.105469 20.378906 43.257812 20.441406 C 43.410156 20.503906 43.546875 20.59375 43.660156 20.710938 C 43.777344 20.828125 43.867188 20.960938 43.929688 21.113281 Z M 43.929688 21.113281 " fill-opacity="1" fill-rule="nonzero"/><path fill="#ffffff" d="M 44.703125 24.085938 C 44.882812 24.101562 45.050781 24.15625 45.207031 24.238281 C 45.367188 24.324219 45.5 24.433594 45.613281 24.574219 C 45.730469 24.710938 45.8125 24.867188 45.863281 25.039062 C 45.914062 25.210938 45.933594 25.386719 45.914062 25.5625 C 45.898438 25.742188 45.847656 25.910156 45.761719 26.066406 C 45.675781 26.226562 45.566406 26.359375 45.425781 26.472656 C 45.289062 26.589844 45.132812 26.671875 44.960938 26.722656 C 44.789062 26.773438 44.617188 26.792969 44.4375 26.773438 C 44.257812 26.757812 44.089844 26.707031 43.933594 26.621094 C 43.777344 26.535156 43.640625 26.425781 43.527344 26.285156 C 43.414062 26.148438 43.328125 25.992188 43.277344 25.820312 C 43.226562 25.648438 43.207031 25.476562 43.226562 25.296875 C 43.242188 25.117188 43.296875 24.949219 43.378906 24.792969 C 43.464844 24.636719 43.574219 24.5 43.714844 24.386719 C 43.851562 24.273438 44.007812 24.1875 44.179688 24.136719 C 44.351562 24.085938 44.527344 24.066406 44.703125 24.085938 Z M 44.703125 24.085938 " fill-opacity="1" fill-rule="nonzero"/><path fill="#ffffff" d="M 45.976562 28.242188 C 46.152344 28.3125 46.308594 28.417969 46.445312 28.554688 C 46.578125 28.6875 46.683594 28.84375 46.757812 29.023438 C 46.832031 29.199219 46.867188 29.382812 46.867188 29.574219 C 46.867188 29.765625 46.832031 29.949219 46.757812 30.128906 C 46.683594 30.304688 46.578125 30.460938 46.445312 30.597656 C 46.308594 30.730469 46.152344 30.835938 45.976562 30.910156 C 45.800781 30.984375 45.613281 31.019531 45.421875 31.019531 C 45.230469 31.019531 45.046875 30.984375 44.871094 30.910156 C 44.695312 30.835938 44.539062 30.730469 44.402344 30.597656 C 44.265625 30.460938 44.160156 30.304688 44.089844 30.128906 C 44.015625 29.949219 43.980469 29.765625 43.980469 29.574219 C 43.980469 29.382812 44.015625 29.199219 44.089844 29.023438 C 44.160156 28.84375 44.265625 28.6875 44.402344 28.554688 C 44.539062 28.417969 44.695312 28.3125 44.871094 28.242188 C 45.046875 28.167969 45.230469 28.128906 45.421875 28.128906 C 45.613281 28.128906 45.800781 28.167969 45.976562 28.242188 Z M 45.976562 28.242188 " fill-opacity="1" fill-rule="nonzero"/><path fill="#ffffff" d="M 46.792969 33.566406 C 46.824219 33.765625 46.816406 33.960938 46.773438 34.15625 C 46.726562 34.351562 46.644531 34.527344 46.527344 34.691406 C 46.410156 34.855469 46.265625 34.988281 46.097656 35.09375 C 45.925781 35.199219 45.742188 35.265625 45.542969 35.300781 C 45.347656 35.332031 45.148438 35.324219 44.953125 35.277344 C 44.757812 35.230469 44.582031 35.148438 44.417969 35.035156 C 44.253906 34.917969 44.121094 34.773438 44.015625 34.601562 C 43.910156 34.429688 43.84375 34.246094 43.808594 34.050781 C 43.777344 33.851562 43.785156 33.65625 43.832031 33.460938 C 43.878906 33.265625 43.960938 33.085938 44.078125 32.925781 C 44.195312 32.761719 44.335938 32.628906 44.507812 32.523438 C 44.679688 32.417969 44.863281 32.347656 45.058594 32.316406 C 45.257812 32.285156 45.453125 32.292969 45.648438 32.335938 C 45.84375 32.382812 46.023438 32.464844 46.183594 32.582031 C 46.347656 32.699219 46.480469 32.84375 46.585938 33.015625 C 46.691406 33.183594 46.761719 33.367188 46.792969 33.566406 Z M 46.792969 33.566406 " fill-opacity="1" fill-rule="nonzero"/><path fill="#ffffff" d="M 44.207031 39.4375 C 43.359375 39.4375 42.667969 38.75 42.667969 37.898438 C 42.667969 37.046875 43.359375 36.359375 44.207031 36.359375 C 45.058594 36.359375 45.746094 37.046875 45.746094 37.898438 C 45.746094 38.75 45.058594 39.4375 44.207031 39.4375 Z M 44.207031 39.4375 " fill-opacity="1" fill-rule="nonzero"/><path fill="#ffffff" d="M 42.199219 43.148438 C 41.355469 43.148438 40.671875 42.464844 40.671875 41.625 C 40.671875 40.78125 41.355469 40.101562 42.199219 40.101562 C 43.039062 40.101562 43.722656 40.785156 43.722656 41.625 C 43.722656 42.464844 43.039062 43.148438 42.199219 43.148438 Z M 42.199219 43.148438 " fill-opacity="1" fill-rule="nonzero"/><path fill="#ffffff" d="M 40.425781 43.738281 C 40.566406 43.878906 40.671875 44.039062 40.746094 44.21875 C 40.820312 44.402344 40.859375 44.589844 40.859375 44.785156 C 40.859375 44.980469 40.820312 45.171875 40.746094 45.351562 C 40.671875 45.535156 40.566406 45.695312 40.425781 45.832031 C 40.285156 45.972656 40.128906 46.078125 39.945312 46.152344 C 39.765625 46.226562 39.574219 46.265625 39.378906 46.265625 C 39.183594 46.265625 38.996094 46.226562 38.8125 46.152344 C 38.632812 46.078125 38.472656 45.972656 38.332031 45.832031 C 38.195312 45.695312 38.085938 45.535156 38.011719 45.351562 C 37.9375 45.171875 37.898438 44.980469 37.898438 44.785156 C 37.898438 44.589844 37.9375 44.402344 38.011719 44.21875 C 38.085938 44.039062 38.195312 43.878906 38.332031 43.738281 C 38.472656 43.601562 38.632812 43.492188 38.8125 43.417969 C 38.996094 43.34375 39.183594 43.304688 39.378906 43.304688 C 39.574219 43.304688 39.765625 43.34375 39.945312 43.417969 C 40.128906 43.492188 40.285156 43.601562 40.425781 43.738281 Z M 40.425781 43.738281 " fill-opacity="1" fill-rule="nonzero"/><path fill="#ffffff" d="M 36.457031 45.910156 C 36.628906 45.984375 36.78125 46.085938 36.914062 46.21875 C 37.046875 46.351562 37.148438 46.503906 37.21875 46.675781 C 37.289062 46.847656 37.328125 47.027344 37.328125 47.214844 C 37.328125 47.402344 37.289062 47.582031 37.21875 47.757812 C 37.148438 47.929688 37.046875 48.082031 36.914062 48.214844 C 36.78125 48.347656 36.628906 48.449219 36.457031 48.519531 C 36.28125 48.59375 36.101562 48.628906 35.914062 48.628906 C 35.726562 48.628906 35.546875 48.59375 35.375 48.519531 C 35.203125 48.449219 35.046875 48.347656 34.917969 48.214844 C 34.785156 48.082031 34.683594 47.929688 34.609375 47.757812 C 34.539062 47.582031 34.503906 47.402344 34.503906 47.214844 C 34.503906 47.027344 34.539062 46.847656 34.609375 46.675781 C 34.683594 46.503906 34.785156 46.351562 34.917969 46.21875 C 35.046875 46.085938 35.203125 45.984375 35.375 45.910156 C 35.546875 45.839844 35.726562 45.804688 35.914062 45.804688 C 36.101562 45.804688 36.28125 45.839844 36.457031 45.910156 Z M 36.457031 45.910156 " fill-opacity="1" fill-rule="nonzero"/><path fill="#ffffff" d="M 33.300781 48.777344 C 33.300781 48.953125 33.269531 49.125 33.199219 49.285156 C 33.132812 49.449219 33.039062 49.589844 32.914062 49.714844 C 32.789062 49.839844 32.648438 49.933594 32.484375 50 C 32.324219 50.070312 32.152344 50.101562 31.976562 50.101562 C 31.804688 50.101562 31.632812 50.070312 31.472656 50 C 31.308594 49.933594 31.167969 49.839844 31.042969 49.714844 C 30.917969 49.589844 30.824219 49.449219 30.753906 49.285156 C 30.6875 49.125 30.65625 48.953125 30.65625 48.777344 C 30.65625 48.601562 30.6875 48.433594 30.753906 48.273438 C 30.824219 48.109375 30.917969 47.96875 31.042969 47.84375 C 31.167969 47.71875 31.308594 47.625 31.472656 47.554688 C 31.632812 47.488281 31.804688 47.457031 31.976562 47.457031 C 32.152344 47.457031 32.324219 47.488281 32.484375 47.554688 C 32.648438 47.625 32.789062 47.71875 32.914062 47.84375 C 33.039062 47.96875 33.132812 48.109375 33.199219 48.273438 C 33.269531 48.433594 33.300781 48.601562 33.300781 48.777344 Z M 33.300781 48.777344 " fill-opacity="1" fill-rule="nonzero"/><path fill="#ffffff" d="M 28.253906 48.265625 C 28.402344 48.328125 28.535156 48.417969 28.648438 48.53125 C 28.761719 48.644531 28.847656 48.773438 28.910156 48.925781 C 28.972656 49.074219 29.003906 49.226562 29.003906 49.390625 C 29.003906 49.550781 28.972656 49.703125 28.910156 49.851562 C 28.847656 50.003906 28.761719 50.132812 28.648438 50.246094 C 28.535156 50.359375 28.402344 50.449219 28.253906 50.511719 C 28.105469 50.570312 27.949219 50.601562 27.789062 50.601562 C 27.628906 50.601562 27.472656 50.570312 27.324219 50.511719 C 27.175781 50.449219 27.046875 50.359375 26.929688 50.246094 C 26.816406 50.132812 26.730469 50.003906 26.667969 49.851562 C 26.605469 49.703125 26.574219 49.550781 26.574219 49.390625 C 26.574219 49.226562 26.605469 49.074219 26.667969 48.925781 C 26.730469 48.773438 26.816406 48.644531 26.929688 48.53125 C 27.046875 48.417969 27.175781 48.328125 27.324219 48.265625 C 27.472656 48.207031 27.628906 48.175781 27.789062 48.175781 C 27.949219 48.175781 28.105469 48.207031 28.253906 48.265625 Z M 28.253906 48.265625 " fill-opacity="1" fill-rule="nonzero"/><path fill="#ffffff" d="M 23.570312 50.105469 C 22.972656 50.105469 22.488281 49.621094 22.488281 49.023438 C 22.488281 48.421875 22.972656 47.9375 23.570312 47.9375 C 24.167969 47.9375 24.652344 48.421875 24.652344 49.023438 C 24.652344 49.621094 24.167969 50.105469 23.570312 50.105469 Z M 23.570312 50.105469 " fill-opacity="1" fill-rule="nonzero"/><path fill="#ffffff" d="M 19.765625 46.777344 C 20.019531 46.835938 20.21875 46.976562 20.355469 47.199219 C 20.492188 47.421875 20.53125 47.660156 20.46875 47.914062 C 20.410156 48.167969 20.269531 48.363281 20.046875 48.5 C 19.824219 48.636719 19.585938 48.675781 19.332031 48.617188 C 19.078125 48.554688 18.882812 48.414062 18.746094 48.191406 C 18.609375 47.972656 18.570312 47.734375 18.632812 47.480469 C 18.691406 47.226562 18.832031 47.03125 19.054688 46.890625 C 19.277344 46.753906 19.511719 46.71875 19.765625 46.777344 Z M 19.765625 46.777344 " fill-opacity="1" fill-rule="nonzero"/><path fill="#ffffff" d="M 15.949219 46.257812 C 15.511719 46.257812 15.15625 45.902344 15.15625 45.464844 C 15.15625 45.027344 15.511719 44.671875 15.949219 44.671875 C 16.386719 44.671875 16.742188 45.027344 16.742188 45.464844 C 16.742188 45.90625 16.386719 46.257812 15.949219 46.257812 Z M 15.949219 46.257812 " fill-opacity="1" fill-rule="nonzero"/><path fill="#ffffff" d="M 12.957031 43.117188 C 12.597656 43.117188 12.308594 42.828125 12.308594 42.472656 C 12.308594 42.117188 12.597656 41.828125 12.957031 41.828125 C 13.3125 41.828125 13.601562 42.117188 13.601562 42.472656 C 13.601562 42.828125 13.3125 43.117188 12.957031 43.117188 Z M 12.957031 43.117188 " fill-opacity="1" fill-rule="nonzero"/><path fill="#ffffff" d="M 10.730469 39.371094 C 10.453125 39.371094 10.230469 39.148438 10.230469 38.871094 C 10.230469 38.59375 10.453125 38.371094 10.730469 38.371094 C 11.007812 38.371094 11.230469 38.59375 11.230469 38.871094 C 11.230469 39.148438 11.007812 39.371094 10.730469 39.371094 Z M 10.730469 39.371094 " fill-opacity="1" fill-rule="nonzero"/><path fill="#ffffff" d="M 9.402344 35.222656 C 9.195312 35.222656 9.027344 35.054688 9.027344 34.851562 C 9.027344 34.644531 9.195312 34.476562 9.402344 34.476562 C 9.609375 34.476562 9.773438 34.644531 9.773438 34.851562 C 9.773438 35.054688 9.609375 35.222656 9.402344 35.222656 Z M 9.402344 35.222656 " fill-opacity="1" fill-rule="nonzero"/><path fill="#ffffff" d="M 9.035156 30.898438 C 8.886719 30.898438 8.769531 30.777344 8.769531 30.632812 C 8.769531 30.484375 8.886719 30.367188 9.035156 30.367188 C 9.183594 30.367188 9.300781 30.484375 9.300781 30.632812 C 9.300781 30.777344 9.183594 30.898438 9.035156 30.898438 Z M 9.035156 30.898438 " fill-opacity="1" fill-rule="nonzero"/><path fill="#ffffff" d="M 9.648438 26.625 C 9.546875 26.625 9.464844 26.542969 9.464844 26.441406 C 9.464844 26.34375 9.546875 26.261719 9.648438 26.261719 C 9.746094 26.261719 9.828125 26.339844 9.828125 26.441406 C 9.828125 26.542969 9.746094 26.625 9.648438 26.625 Z M 9.648438 26.625 " fill-opacity="1" fill-rule="nonzero"/><path fill="#ffffff" d="M 11.207031 22.628906 C 11.140625 22.628906 11.085938 22.574219 11.085938 22.507812 C 11.085938 22.4375 11.140625 22.382812 11.207031 22.382812 C 11.277344 22.382812 11.332031 22.4375 11.332031 22.507812 C 11.332031 22.574219 11.277344 22.628906 11.207031 22.628906 Z M 11.207031 22.628906 " fill-opacity="1" fill-rule="nonzero"/><path fill="#ffffff" d="M 13.640625 19.128906 C 13.59375 19.128906 13.554688 19.089844 13.554688 19.042969 C 13.554688 18.996094 13.59375 18.957031 13.640625 18.957031 C 13.6875 18.957031 13.726562 18.996094 13.726562 19.042969 C 13.726562 19.089844 13.6875 19.128906 13.640625 19.128906 Z M 13.640625 19.128906 " fill-opacity="1" fill-rule="nonzero"/><path fill="#ffffff" d="M 16.800781 16.316406 C 16.75 16.316406 16.710938 16.277344 16.710938 16.226562 C 16.710938 16.175781 16.75 16.132812 16.800781 16.132812 C 16.851562 16.132812 16.894531 16.175781 16.894531 16.226562 C 16.894531 16.277344 16.851562 16.316406 16.800781 16.316406 Z M 16.800781 16.316406 " fill-opacity="1" fill-rule="nonzero"/><path fill="#ffffff" d="M 20.527344 14.394531 C 20.429688 14.394531 20.351562 14.3125 20.351562 14.214844 C 20.351562 14.117188 20.429688 14.039062 20.527344 14.039062 C 20.625 14.039062 20.707031 14.117188 20.707031 14.214844 C 20.707031 14.3125 20.625 14.394531 20.527344 14.394531 Z M 20.527344 14.394531 " fill-opacity="1" fill-rule="nonzero"/><path fill="#ffffff" d="M 24.617188 13.472656 C 24.425781 13.472656 24.269531 13.316406 24.269531 13.125 C 24.269531 12.929688 24.425781 12.773438 24.617188 12.773438 C 24.8125 12.773438 24.96875 12.929688 24.96875 13.125 C 24.96875 13.316406 24.8125 13.472656 24.617188 13.472656 Z M 24.617188 13.472656 " fill-opacity="1" fill-rule="nonzero"/><path fill="#ffffff" d="M 28.851562 13.574219 C 28.535156 13.574219 28.277344 13.316406 28.277344 13 C 28.277344 12.683594 28.535156 12.429688 28.851562 12.429688 C 29.167969 12.429688 29.425781 12.683594 29.425781 13 C 29.425781 13.316406 29.167969 13.574219 28.851562 13.574219 Z M 28.851562 13.574219 " fill-opacity="1" fill-rule="nonzero"/><path fill="#ffffff" d="M 33 14.65625 C 32.554688 14.65625 32.195312 14.296875 32.195312 13.855469 C 32.195312 13.410156 32.554688 13.050781 33 13.050781 C 33.441406 13.050781 33.800781 13.410156 33.800781 13.855469 C 33.800781 14.296875 33.441406 14.65625 33 14.65625 Z M 33 14.65625 " fill-opacity="1" fill-rule="nonzero"/><path fill="#ffffff" d="M 36.835938 16.644531 C 36.28125 16.644531 35.835938 16.199219 35.835938 15.644531 C 35.835938 15.09375 36.285156 14.644531 36.835938 14.644531 C 37.386719 14.644531 37.835938 15.09375 37.835938 15.644531 C 37.835938 16.195312 37.386719 16.644531 36.835938 16.644531 Z M 36.835938 16.644531 " fill-opacity="1" fill-rule="nonzero"/><path fill="#ffffff" d="M 29.621094 15.953125 C 29.773438 15.964844 29.914062 16.003906 30.050781 16.070312 C 30.183594 16.136719 30.300781 16.226562 30.398438 16.34375 C 30.5 16.457031 30.570312 16.585938 30.621094 16.726562 C 30.667969 16.871094 30.6875 17.015625 30.675781 17.167969 C 30.664062 17.316406 30.625 17.460938 30.558594 17.59375 C 30.492188 17.730469 30.398438 17.847656 30.285156 17.945312 C 30.171875 18.042969 30.042969 18.117188 29.902344 18.164062 C 29.757812 18.214844 29.609375 18.230469 29.460938 18.222656 C 29.308594 18.210938 29.167969 18.171875 29.03125 18.105469 C 28.898438 18.035156 28.78125 17.945312 28.683594 17.832031 C 28.582031 17.71875 28.511719 17.589844 28.460938 17.445312 C 28.414062 17.304688 28.394531 17.15625 28.40625 17.007812 C 28.417969 16.855469 28.457031 16.714844 28.523438 16.578125 C 28.589844 16.445312 28.683594 16.328125 28.796875 16.226562 C 28.910156 16.128906 29.039062 16.054688 29.179688 16.007812 C 29.324219 15.960938 29.472656 15.941406 29.621094 15.953125 Z M 29.621094 15.953125 " fill-opacity="1" fill-rule="nonzero"/><path fill="#ffffff" d="M 33.828125 17.128906 C 33.996094 17.160156 34.148438 17.222656 34.289062 17.316406 C 34.433594 17.40625 34.550781 17.523438 34.644531 17.664062 C 34.738281 17.804688 34.804688 17.957031 34.835938 18.121094 C 34.871094 18.289062 34.871094 18.453125 34.839844 18.621094 C 34.808594 18.785156 34.746094 18.941406 34.652344 19.082031 C 34.558594 19.222656 34.445312 19.339844 34.304688 19.433594 C 34.164062 19.53125 34.011719 19.59375 33.84375 19.628906 C 33.679688 19.664062 33.511719 19.664062 33.347656 19.632812 C 33.179688 19.601562 33.027344 19.539062 32.886719 19.445312 C 32.746094 19.351562 32.628906 19.234375 32.53125 19.09375 C 32.4375 18.953125 32.375 18.800781 32.339844 18.636719 C 32.304688 18.46875 32.304688 18.304688 32.335938 18.136719 C 32.367188 17.972656 32.429688 17.820312 32.523438 17.675781 C 32.617188 17.535156 32.734375 17.417969 32.875 17.324219 C 33.011719 17.226562 33.167969 17.164062 33.332031 17.128906 C 33.496094 17.097656 33.664062 17.09375 33.828125 17.128906 Z M 33.828125 17.128906 " fill-opacity="1" fill-rule="nonzero"/><path fill="#ffffff" d="M 37.613281 19.515625 C 37.785156 19.585938 37.9375 19.6875 38.070312 19.820312 C 38.203125 19.953125 38.304688 20.105469 38.375 20.277344 C 38.445312 20.449219 38.484375 20.628906 38.484375 20.816406 C 38.484375 21.003906 38.445312 21.179688 38.375 21.355469 C 38.304688 21.527344 38.203125 21.679688 38.070312 21.8125 C 37.9375 21.941406 37.785156 22.042969 37.613281 22.117188 C 37.441406 22.1875 37.261719 22.222656 37.074219 22.222656 C 36.886719 22.222656 36.707031 22.1875 36.535156 22.117188 C 36.363281 22.042969 36.210938 21.941406 36.078125 21.8125 C 35.945312 21.679688 35.84375 21.527344 35.773438 21.355469 C 35.703125 21.179688 35.667969 21.003906 35.667969 20.816406 C 35.667969 20.628906 35.703125 20.449219 35.773438 20.277344 C 35.84375 20.105469 35.945312 19.953125 36.078125 19.820312 C 36.210938 19.6875 36.363281 19.585938 36.535156 19.515625 C 36.707031 19.441406 36.886719 19.40625 37.074219 19.40625 C 37.261719 19.40625 37.441406 19.441406 37.613281 19.515625 Z M 37.613281 19.515625 " fill-opacity="1" fill-rule="nonzero"/><path fill="#ffffff" d="M 41.152344 23.820312 C 41.195312 24.015625 41.203125 24.210938 41.171875 24.40625 C 41.140625 24.605469 41.070312 24.789062 40.964844 24.957031 C 40.863281 25.125 40.730469 25.269531 40.566406 25.386719 C 40.40625 25.503906 40.226562 25.582031 40.035156 25.628906 C 39.839844 25.675781 39.644531 25.683594 39.449219 25.648438 C 39.25 25.617188 39.066406 25.550781 38.898438 25.445312 C 38.730469 25.339844 38.585938 25.207031 38.46875 25.046875 C 38.351562 24.882812 38.273438 24.707031 38.226562 24.511719 C 38.179688 24.320312 38.171875 24.125 38.207031 23.925781 C 38.238281 23.730469 38.304688 23.546875 38.410156 23.378906 C 38.515625 23.207031 38.648438 23.066406 38.808594 22.949219 C 38.972656 22.832031 39.148438 22.75 39.34375 22.707031 C 39.535156 22.660156 39.730469 22.652344 39.929688 22.683594 C 40.125 22.714844 40.308594 22.785156 40.476562 22.890625 C 40.648438 22.992188 40.789062 23.128906 40.90625 23.289062 C 41.023438 23.449219 41.105469 23.628906 41.152344 23.820312 Z M 41.152344 23.820312 " fill-opacity="1" fill-rule="nonzero"/><path fill="#ffffff" d="M 42.289062 27.054688 C 42.433594 27.199219 42.542969 27.363281 42.621094 27.554688 C 42.699219 27.742188 42.738281 27.9375 42.738281 28.140625 C 42.738281 28.347656 42.699219 28.542969 42.621094 28.730469 C 42.542969 28.917969 42.433594 29.085938 42.289062 29.230469 C 42.144531 29.375 41.976562 29.484375 41.789062 29.5625 C 41.601562 29.640625 41.402344 29.679688 41.199219 29.679688 C 40.996094 29.679688 40.800781 29.640625 40.609375 29.5625 C 40.421875 29.484375 40.257812 29.375 40.113281 29.230469 C 39.96875 29.085938 39.855469 28.917969 39.777344 28.730469 C 39.699219 28.542969 39.660156 28.347656 39.660156 28.140625 C 39.660156 27.9375 39.699219 27.742188 39.777344 27.554688 C 39.855469 27.363281 39.96875 27.199219 40.113281 27.054688 C 40.257812 26.910156 40.421875 26.796875 40.609375 26.71875 C 40.800781 26.640625 40.996094 26.601562 41.199219 26.601562 C 41.402344 26.601562 41.601562 26.640625 41.789062 26.71875 C 41.976562 26.796875 42.144531 26.910156 42.289062 27.054688 Z M 42.289062 27.054688 " fill-opacity="1" fill-rule="nonzero"/><path fill="#ffffff" d="M 42.863281 31.808594 C 42.9375 31.992188 42.976562 32.183594 42.976562 32.382812 C 42.976562 32.582031 42.9375 32.777344 42.863281 32.960938 C 42.785156 33.144531 42.675781 33.308594 42.535156 33.449219 C 42.394531 33.59375 42.230469 33.699219 42.046875 33.777344 C 41.863281 33.855469 41.667969 33.890625 41.46875 33.890625 C 41.269531 33.890625 41.078125 33.855469 40.890625 33.777344 C 40.707031 33.699219 40.542969 33.589844 40.402344 33.449219 C 40.261719 33.308594 40.152344 33.144531 40.074219 32.960938 C 40 32.777344 39.960938 32.582031 39.960938 32.382812 C 39.960938 32.183594 40 31.992188 40.074219 31.808594 C 40.152344 31.621094 40.261719 31.457031 40.402344 31.316406 C 40.542969 31.175781 40.707031 31.066406 40.890625 30.992188 C 41.078125 30.914062 41.269531 30.875 41.46875 30.875 C 41.667969 30.875 41.863281 30.914062 42.046875 30.992188 C 42.230469 31.066406 42.394531 31.175781 42.535156 31.316406 C 42.675781 31.457031 42.785156 31.621094 42.863281 31.808594 Z M 42.863281 31.808594 " fill-opacity="1" fill-rule="nonzero"/><path fill="#ffffff" d="M 40.480469 37.957031 C 39.6875 37.957031 39.046875 37.3125 39.046875 36.519531 C 39.046875 35.726562 39.6875 35.085938 40.480469 35.085938 C 41.273438 35.085938 41.914062 35.726562 41.914062 36.519531 C 41.914062 37.3125 41.273438 37.957031 40.480469 37.957031 Z M 40.480469 37.957031 " fill-opacity="1" fill-rule="nonzero"/><path fill="#ffffff" d="M 38.3125 41.5 C 37.582031 41.5 36.992188 40.910156 36.992188 40.175781 C 36.992188 39.445312 37.582031 38.855469 38.3125 38.855469 C 39.046875 38.855469 39.636719 39.445312 39.636719 40.175781 C 39.636719 40.910156 39.042969 41.5 38.3125 41.5 Z M 38.3125 41.5 " fill-opacity="1" fill-rule="nonzero"/><path fill="#ffffff" d="M 36.3125 42.761719 C 36.351562 42.914062 36.355469 43.066406 36.332031 43.222656 C 36.304688 43.375 36.25 43.519531 36.167969 43.652344 C 36.085938 43.785156 35.984375 43.898438 35.855469 43.988281 C 35.730469 44.082031 35.589844 44.144531 35.4375 44.179688 C 35.285156 44.214844 35.132812 44.222656 34.976562 44.195312 C 34.820312 44.171875 34.679688 44.117188 34.546875 44.035156 C 34.414062 43.953125 34.300781 43.847656 34.207031 43.722656 C 34.117188 43.59375 34.054688 43.457031 34.015625 43.304688 C 33.980469 43.152344 33.976562 42.996094 34 42.84375 C 34.027344 42.6875 34.078125 42.542969 34.160156 42.410156 C 34.242188 42.277344 34.347656 42.167969 34.476562 42.074219 C 34.601562 41.984375 34.742188 41.917969 34.894531 41.882812 C 35.046875 41.847656 35.199219 41.84375 35.355469 41.867188 C 35.507812 41.890625 35.652344 41.945312 35.785156 42.027344 C 35.917969 42.109375 36.03125 42.214844 36.121094 42.34375 C 36.214844 42.46875 36.277344 42.609375 36.3125 42.761719 Z M 36.3125 42.761719 " fill-opacity="1" fill-rule="nonzero"/><path fill="#ffffff" d="M 31.316406 45.84375 C 30.761719 45.84375 30.3125 45.394531 30.3125 44.839844 C 30.3125 44.285156 30.761719 43.835938 31.316406 43.835938 C 31.871094 43.835938 32.320312 44.285156 32.320312 44.839844 C 32.320312 45.394531 31.871094 45.84375 31.316406 45.84375 Z M 31.316406 45.84375 " fill-opacity="1" fill-rule="nonzero"/><path fill="#ffffff" d="M 27.921875 45.425781 C 27.921875 45.652344 27.839844 45.84375 27.679688 46.003906 C 27.523438 46.160156 27.328125 46.242188 27.105469 46.242188 C 26.878906 46.242188 26.6875 46.160156 26.527344 46.003906 C 26.367188 45.84375 26.289062 45.652344 26.289062 45.425781 C 26.289062 45.199219 26.367188 45.007812 26.527344 44.847656 C 26.6875 44.691406 26.878906 44.609375 27.105469 44.609375 C 27.328125 44.609375 27.523438 44.691406 27.679688 44.847656 C 27.839844 45.007812 27.921875 45.199219 27.921875 45.425781 Z M 27.921875 45.425781 " fill-opacity="1" fill-rule="nonzero"/><path fill="#ffffff" d="M 22.90625 45.371094 C 22.5625 45.371094 22.28125 45.09375 22.28125 44.746094 C 22.28125 44.402344 22.5625 44.121094 22.90625 44.121094 C 23.253906 44.121094 23.53125 44.402344 23.53125 44.746094 C 23.53125 45.089844 23.253906 45.371094 22.90625 45.371094 Z M 22.90625 45.371094 " fill-opacity="1" fill-rule="nonzero"/><path fill="#ffffff" d="M 19.097656 43.304688 C 18.851562 43.304688 18.652344 43.105469 18.652344 42.863281 C 18.652344 42.617188 18.851562 42.417969 19.097656 42.417969 C 19.34375 42.417969 19.542969 42.617188 19.542969 42.863281 C 19.542969 43.109375 19.34375 43.304688 19.097656 43.304688 Z M 19.097656 43.304688 " fill-opacity="1" fill-rule="nonzero"/><path fill="#ffffff" d="M 16.015625 40.226562 C 15.851562 40.226562 15.722656 40.097656 15.722656 39.933594 C 15.722656 39.773438 15.851562 39.640625 16.015625 39.640625 C 16.175781 39.640625 16.308594 39.773438 16.308594 39.933594 C 16.308594 40.097656 16.175781 40.226562 16.015625 40.226562 Z M 16.015625 40.226562 " fill-opacity="1" fill-rule="nonzero"/><path fill="#ffffff" d="M 13.925781 36.414062 C 13.828125 36.414062 13.746094 36.332031 13.746094 36.230469 C 13.746094 36.128906 13.828125 36.046875 13.925781 36.046875 C 14.027344 36.046875 14.109375 36.128906 14.109375 36.230469 C 14.109375 36.332031 14.027344 36.414062 13.925781 36.414062 Z M 13.925781 36.414062 " fill-opacity="1" fill-rule="nonzero"/><path fill="#ffffff" d="M 13.023438 32.183594 C 12.964844 32.183594 12.917969 32.136719 12.917969 32.078125 C 12.917969 32.015625 12.964844 31.96875 13.023438 31.96875 C 13.085938 31.96875 13.132812 32.015625 13.132812 32.078125 C 13.132812 32.136719 13.085938 32.183594 13.023438 32.183594 Z M 13.023438 32.183594 " fill-opacity="1" fill-rule="nonzero"/><path fill="#ffffff" d="M 13.472656 27.839844 C 13.472656 27.894531 13.445312 27.917969 13.390625 27.917969 C 13.335938 27.917969 13.3125 27.894531 13.3125 27.839844 C 13.3125 27.785156 13.335938 27.757812 13.390625 27.757812 C 13.445312 27.757812 13.472656 27.785156 13.472656 27.839844 Z M 13.472656 27.839844 " fill-opacity="1" fill-rule="nonzero"/><path fill="#ffffff" d="M 14.984375 24.058594 C 14.894531 24.058594 14.824219 23.988281 14.824219 23.898438 C 14.824219 23.808594 14.894531 23.738281 14.984375 23.738281 C 15.074219 23.738281 15.144531 23.808594 15.144531 23.898438 C 15.144531 23.988281 15.074219 24.058594 14.984375 24.058594 Z M 14.984375 24.058594 " fill-opacity="1" fill-rule="nonzero"/><path fill="#ffffff" d="M 17.675781 20.984375 C 17.464844 20.984375 17.296875 20.8125 17.296875 20.605469 C 17.296875 20.394531 17.464844 20.226562 17.675781 20.226562 C 17.882812 20.226562 18.050781 20.394531 18.050781 20.605469 C 18.050781 20.8125 17.882812 20.984375 17.675781 20.984375 Z M 17.675781 20.984375 " fill-opacity="1" fill-rule="nonzero"/><path fill="#ffffff" d="M 21.6875 17.773438 C 21.820312 17.902344 21.886719 18.0625 21.886719 18.25 C 21.886719 18.433594 21.820312 18.59375 21.6875 18.726562 C 21.558594 18.859375 21.398438 18.921875 21.210938 18.921875 C 21.023438 18.921875 20.867188 18.859375 20.734375 18.726562 C 20.601562 18.59375 20.535156 18.433594 20.535156 18.25 C 20.535156 18.0625 20.601562 17.902344 20.734375 17.773438 C 20.867188 17.640625 21.023438 17.574219 21.210938 17.574219 C 21.398438 17.574219 21.558594 17.640625 21.6875 17.773438 Z M 21.6875 17.773438 " fill-opacity="1" fill-rule="nonzero"/><path fill="#ffffff" d="M 25.285156 17.988281 C 24.761719 17.988281 24.335938 17.5625 24.335938 17.035156 C 24.335938 16.511719 24.761719 16.085938 25.285156 16.085938 C 25.8125 16.085938 26.238281 16.511719 26.238281 17.035156 C 26.238281 17.5625 25.8125 17.988281 25.285156 17.988281 Z M 25.285156 17.988281 " fill-opacity="1" fill-rule="nonzero"/><path fill="#ffffff" d="M 20.054688 24.359375 C 19.425781 24.359375 18.917969 23.851562 18.917969 23.222656 C 18.917969 22.59375 19.425781 22.085938 20.054688 22.085938 C 20.683594 22.085938 21.191406 22.59375 21.191406 23.222656 C 21.191406 23.851562 20.683594 24.359375 20.054688 24.359375 Z M 20.054688 24.359375 " fill-opacity="1" fill-rule="nonzero"/><path fill="#ffffff" d="M 24.859375 20.5625 C 24.925781 20.726562 24.960938 20.894531 24.960938 21.066406 C 24.960938 21.242188 24.925781 21.410156 24.859375 21.574219 C 24.792969 21.734375 24.695312 21.875 24.574219 22 C 24.449219 22.125 24.308594 22.21875 24.144531 22.285156 C 23.984375 22.351562 23.816406 22.386719 23.640625 22.386719 C 23.464844 22.386719 23.296875 22.351562 23.136719 22.285156 C 22.976562 22.21875 22.832031 22.125 22.707031 22 C 22.585938 21.875 22.488281 21.734375 22.421875 21.574219 C 22.355469 21.410156 22.324219 21.242188 22.324219 21.066406 C 22.324219 20.894531 22.355469 20.726562 22.421875 20.5625 C 22.488281 20.402344 22.585938 20.257812 22.707031 20.136719 C 22.832031 20.011719 22.976562 19.917969 23.136719 19.851562 C 23.296875 19.78125 23.464844 19.75 23.640625 19.75 C 23.816406 19.75 23.984375 19.78125 24.144531 19.851562 C 24.308594 19.917969 24.449219 20.011719 24.574219 20.136719 C 24.695312 20.257812 24.792969 20.402344 24.859375 20.5625 Z M 24.859375 20.5625 " fill-opacity="1" fill-rule="nonzero"/><path fill="#ffffff" d="M 27.78125 21.929688 C 26.964844 21.929688 26.304688 21.269531 26.304688 20.457031 C 26.304688 19.640625 26.964844 18.980469 27.78125 18.980469 C 28.59375 18.980469 29.253906 19.640625 29.253906 20.457031 C 29.253906 21.269531 28.59375 21.929688 27.78125 21.929688 Z M 27.78125 21.929688 " fill-opacity="1" fill-rule="nonzero"/><path fill="#ffffff" d="M 31.96875 19.933594 C 32.171875 19.949219 32.363281 20.003906 32.546875 20.097656 C 32.726562 20.191406 32.882812 20.316406 33.015625 20.472656 C 33.148438 20.628906 33.246094 20.804688 33.304688 20.996094 C 33.367188 21.191406 33.390625 21.390625 33.375 21.59375 C 33.359375 21.796875 33.304688 21.988281 33.210938 22.171875 C 33.117188 22.351562 32.992188 22.507812 32.835938 22.640625 C 32.679688 22.773438 32.503906 22.871094 32.3125 22.933594 C 32.117188 22.996094 31.917969 23.019531 31.714844 23 C 31.511719 22.984375 31.320312 22.929688 31.136719 22.835938 C 30.957031 22.742188 30.800781 22.617188 30.667969 22.460938 C 30.535156 22.304688 30.4375 22.132812 30.375 21.9375 C 30.3125 21.742188 30.289062 21.542969 30.308594 21.339844 C 30.324219 21.136719 30.378906 20.945312 30.472656 20.761719 C 30.566406 20.582031 30.691406 20.425781 30.847656 20.292969 C 31.003906 20.160156 31.175781 20.0625 31.371094 20 C 31.566406 19.941406 31.765625 19.917969 31.96875 19.933594 Z M 31.96875 19.933594 " fill-opacity="1" fill-rule="nonzero"/><path fill="#ffffff" d="M 35.441406 22.484375 C 35.636719 22.515625 35.820312 22.582031 35.988281 22.6875 C 36.15625 22.792969 36.300781 22.921875 36.414062 23.085938 C 36.53125 23.246094 36.613281 23.421875 36.65625 23.617188 C 36.703125 23.808594 36.710938 24.003906 36.679688 24.199219 C 36.644531 24.394531 36.578125 24.578125 36.472656 24.746094 C 36.371094 24.914062 36.238281 25.058594 36.074219 25.171875 C 35.914062 25.289062 35.738281 25.371094 35.546875 25.414062 C 35.351562 25.460938 35.15625 25.46875 34.960938 25.4375 C 34.765625 25.402344 34.582031 25.335938 34.414062 25.230469 C 34.246094 25.128906 34.105469 24.996094 33.988281 24.832031 C 33.871094 24.671875 33.792969 24.496094 33.746094 24.304688 C 33.699219 24.109375 33.691406 23.914062 33.726562 23.71875 C 33.757812 23.523438 33.824219 23.339844 33.929688 23.171875 C 34.035156 23.003906 34.164062 22.863281 34.328125 22.746094 C 34.488281 22.628906 34.664062 22.550781 34.859375 22.503906 C 35.050781 22.457031 35.246094 22.449219 35.441406 22.484375 Z M 35.441406 22.484375 " fill-opacity="1" fill-rule="nonzero"/><path fill="#ffffff" d="M 37.355469 28.921875 C 36.597656 28.921875 35.980469 28.304688 35.980469 27.546875 C 35.980469 26.785156 36.597656 26.171875 37.355469 26.171875 C 38.117188 26.171875 38.730469 26.785156 38.730469 27.546875 C 38.730469 28.304688 38.117188 28.921875 37.355469 28.921875 Z M 37.355469 28.921875 " fill-opacity="1" fill-rule="nonzero"/><path fill="#ffffff" d="M 37.96875 32.882812 C 37.308594 32.882812 36.769531 32.347656 36.769531 31.683594 C 36.769531 31.023438 37.308594 30.484375 37.96875 30.484375 C 38.632812 30.484375 39.167969 31.023438 39.167969 31.683594 C 39.167969 32.347656 38.632812 32.882812 37.96875 32.882812 Z M 37.96875 32.882812 " fill-opacity="1" fill-rule="nonzero"/><path fill="#ffffff" d="M 37.929688 35.746094 C 37.929688 36.011719 37.835938 36.242188 37.644531 36.433594 C 37.457031 36.621094 37.226562 36.71875 36.957031 36.71875 C 36.6875 36.71875 36.460938 36.621094 36.269531 36.433594 C 36.082031 36.242188 35.984375 36.011719 35.984375 35.746094 C 35.984375 35.476562 36.082031 35.246094 36.269531 35.058594 C 36.460938 34.867188 36.6875 34.773438 36.957031 34.773438 C 37.226562 34.773438 37.457031 34.867188 37.644531 35.058594 C 37.835938 35.246094 37.929688 35.476562 37.929688 35.746094 Z M 37.929688 35.746094 " fill-opacity="1" fill-rule="nonzero"/><path fill="#ffffff" d="M 34.523438 38.390625 C 34.722656 38.40625 34.886719 38.488281 35.011719 38.640625 C 35.140625 38.792969 35.195312 38.96875 35.179688 39.164062 C 35.164062 39.363281 35.082031 39.523438 34.929688 39.652344 C 34.777344 39.78125 34.605469 39.835938 34.40625 39.820312 C 34.207031 39.804688 34.046875 39.71875 33.917969 39.570312 C 33.789062 39.417969 33.734375 39.242188 33.75 39.046875 C 33.765625 38.847656 33.851562 38.6875 34 38.558594 C 34.152344 38.429688 34.328125 38.375 34.523438 38.390625 Z M 34.523438 38.390625 " fill-opacity="1" fill-rule="nonzero"/><path fill="#ffffff" d="M 30.878906 41.734375 C 30.617188 41.734375 30.402344 41.523438 30.402344 41.261719 C 30.402344 40.996094 30.617188 40.785156 30.878906 40.785156 C 31.140625 40.785156 31.351562 41 31.351562 41.261719 C 31.351562 41.523438 31.140625 41.734375 30.878906 41.734375 Z M 30.878906 41.734375 " fill-opacity="1" fill-rule="nonzero"/><path fill="#ffffff" d="M 26.738281 42.152344 C 26.585938 42.152344 26.460938 42.027344 26.460938 41.875 C 26.460938 41.722656 26.585938 41.597656 26.738281 41.597656 C 26.894531 41.597656 27.015625 41.722656 27.015625 41.875 C 27.015625 42.027344 26.894531 42.152344 26.738281 42.152344 Z M 26.738281 42.152344 " fill-opacity="1" fill-rule="nonzero"/><path fill="#ffffff" d="M 22.679688 41.007812 C 22.597656 41.007812 22.535156 40.941406 22.535156 40.863281 C 22.535156 40.78125 22.601562 40.71875 22.679688 40.71875 C 22.761719 40.71875 22.824219 40.78125 22.824219 40.863281 C 22.824219 40.941406 22.761719 41.007812 22.679688 41.007812 Z M 22.679688 41.007812 " fill-opacity="1" fill-rule="nonzero"/><path fill="#ffffff" d="M 19.398438 38.371094 C 19.398438 38.421875 19.375 38.449219 19.320312 38.449219 C 19.265625 38.449219 19.238281 38.421875 19.238281 38.371094 C 19.238281 38.316406 19.265625 38.289062 19.320312 38.289062 C 19.375 38.289062 19.398438 38.316406 19.398438 38.371094 Z M 19.398438 38.371094 " fill-opacity="1" fill-rule="nonzero"/><path fill="#ffffff" d="M 17.164062 34.953125 C 17.070312 34.953125 16.992188 34.878906 16.992188 34.78125 C 16.992188 34.6875 17.070312 34.613281 17.164062 34.613281 C 17.257812 34.613281 17.335938 34.6875 17.335938 34.78125 C 17.335938 34.878906 17.257812 34.953125 17.164062 34.953125 Z M 17.164062 34.953125 " fill-opacity="1" fill-rule="nonzero"/><path fill="#ffffff" d="M 16.550781 31.128906 C 16.28125 31.128906 16.066406 30.910156 16.066406 30.644531 C 16.066406 30.375 16.28125 30.160156 16.550781 30.160156 C 16.816406 30.160156 17.035156 30.375 17.035156 30.644531 C 17.035156 30.910156 16.816406 31.128906 16.550781 31.128906 Z M 16.550781 31.128906 " fill-opacity="1" fill-rule="nonzero"/><path fill="#ffffff" d="M 17.5625 27.457031 C 17.082031 27.457031 16.691406 27.066406 16.691406 26.585938 C 16.691406 26.101562 17.082031 25.714844 17.5625 25.714844 C 18.042969 25.714844 18.433594 26.105469 18.433594 26.585938 C 18.433594 27.066406 18.042969 27.457031 17.5625 27.457031 Z M 17.5625 27.457031 " fill-opacity="1" fill-rule="nonzero"/></svg>