<svg xmlns="http://www.w3.org/2000/svg" xmlns:xlink="http://www.w3.org/1999/xlink" width="257" zoomAndPan="magnify" viewBox="0 0 192.75 67.499998" height="90" preserveAspectRatio="xMidYMid meet" version="1.0"><defs><g/><clipPath id="cd6504cd0d"><path d="M 24 54 L 28 54 L 28 57.625 L 24 57.625 Z M 24 54 " clip-rule="nonzero"/></clipPath><clipPath id="95c38065f9"><path d="M 3.128906 36 L 6 36 L 6 39 L 3.128906 39 Z M 3.128906 36 " clip-rule="nonzero"/></clipPath><clipPath id="eff877dde5"><path d="M 3.128906 32 L 5 32 L 5 35 L 3.128906 35 Z M 3.128906 32 " clip-rule="nonzero"/></clipPath><clipPath id="ba789edc69"><path d="M 3.128906 28 L 5 28 L 5 30 L 3.128906 30 Z M 3.128906 28 " clip-rule="nonzero"/></clipPath><clipPath id="331ddd473f"><path d="M 21 11.464844 L 22 11.464844 L 22 13 L 21 13 Z M 21 11.464844 " clip-rule="nonzero"/></clipPath><clipPath id="55515784d3"><path d="M 25 11.464844 L 26 11.464844 L 26 12 L 25 12 Z M 25 11.464844 " clip-rule="nonzero"/></clipPath><clipPath id="2fc7073e18"><path d="M 30 11.464844 L 31 11.464844 L 31 13 L 30 13 Z M 30 11.464844 " clip-rule="nonzero"/></clipPath></defs><g fill="#ffffff" fill-opacity="1"><g transform="translate(50.551154, 45.215053)"><g><path d="M 10.53125 -18.9375 C 11.84375 -18.9375 12.988281 -18.796875 13.96875 -18.515625 C 14.957031 -18.234375 15.722656 -17.84375 16.265625 -17.34375 C 16.816406 -16.851562 17.09375 -16.257812 17.09375 -15.5625 C 17.09375 -15.09375 16.953125 -14.65625 16.671875 -14.25 C 16.390625 -13.851562 15.984375 -13.65625 15.453125 -13.65625 C 15.085938 -13.65625 14.78125 -13.707031 14.53125 -13.8125 C 14.289062 -13.914062 14.078125 -14.046875 13.890625 -14.203125 C 13.703125 -14.367188 13.484375 -14.519531 13.234375 -14.65625 C 13.003906 -14.789062 12.648438 -14.898438 12.171875 -14.984375 C 11.703125 -15.066406 11.347656 -15.109375 11.109375 -15.109375 C 9.929688 -15.109375 8.929688 -14.851562 8.109375 -14.34375 C 7.285156 -13.832031 6.65625 -13.140625 6.21875 -12.265625 C 5.78125 -11.398438 5.5625 -10.40625 5.5625 -9.28125 C 5.5625 -8.164062 5.785156 -7.171875 6.234375 -6.296875 C 6.679688 -5.429688 7.304688 -4.742188 8.109375 -4.234375 C 8.910156 -3.722656 9.832031 -3.46875 10.875 -3.46875 C 11.445312 -3.46875 11.941406 -3.503906 12.359375 -3.578125 C 12.773438 -3.648438 13.125 -3.753906 13.40625 -3.890625 C 13.726562 -4.078125 14.015625 -4.273438 14.265625 -4.484375 C 14.523438 -4.691406 14.910156 -4.796875 15.421875 -4.796875 C 16.023438 -4.796875 16.488281 -4.601562 16.8125 -4.21875 C 17.132812 -3.832031 17.296875 -3.363281 17.296875 -2.8125 C 17.296875 -2.226562 16.972656 -1.695312 16.328125 -1.21875 C 15.679688 -0.75 14.828125 -0.367188 13.765625 -0.078125 C 12.710938 0.203125 11.570312 0.34375 10.34375 0.34375 C 8.519531 0.34375 6.9375 -0.078125 5.59375 -0.921875 C 4.25 -1.765625 3.210938 -2.914062 2.484375 -4.375 C 1.753906 -5.832031 1.390625 -7.46875 1.390625 -9.28125 C 1.390625 -11.175781 1.773438 -12.847656 2.546875 -14.296875 C 3.328125 -15.742188 4.40625 -16.878906 5.78125 -17.703125 C 7.15625 -18.523438 8.738281 -18.9375 10.53125 -18.9375 Z M 10.53125 -18.9375 "/></g></g></g><g fill="#ffffff" fill-opacity="1"><g transform="translate(68.613249, 45.215053)"><g><path d="M 16.046875 -18.578125 C 16.648438 -18.578125 17.144531 -18.375 17.53125 -17.96875 C 17.925781 -17.570312 18.125 -17.070312 18.125 -16.46875 L 18.125 -7.640625 C 18.125 -5.179688 17.441406 -3.234375 16.078125 -1.796875 C 14.710938 -0.367188 12.742188 0.34375 10.171875 0.34375 C 7.609375 0.34375 5.644531 -0.367188 4.28125 -1.796875 C 2.925781 -3.234375 2.25 -5.179688 2.25 -7.640625 L 2.25 -16.46875 C 2.25 -17.070312 2.445312 -17.570312 2.84375 -17.96875 C 3.238281 -18.375 3.738281 -18.578125 4.34375 -18.578125 C 4.945312 -18.578125 5.441406 -18.375 5.828125 -17.96875 C 6.222656 -17.570312 6.421875 -17.070312 6.421875 -16.46875 L 6.421875 -7.640625 C 6.421875 -6.222656 6.734375 -5.171875 7.359375 -4.484375 C 7.984375 -3.804688 8.921875 -3.46875 10.171875 -3.46875 C 11.453125 -3.46875 12.40625 -3.804688 13.03125 -4.484375 C 13.65625 -5.171875 13.96875 -6.222656 13.96875 -7.640625 L 13.96875 -16.46875 C 13.96875 -17.070312 14.160156 -17.570312 14.546875 -17.96875 C 14.941406 -18.375 15.441406 -18.578125 16.046875 -18.578125 Z M 16.046875 -18.578125 "/></g></g></g><g fill="#ffffff" fill-opacity="1"><g transform="translate(89.002575, 45.215053)"><g><path d="M 11.875 -18.9375 C 13.5 -18.9375 14.953125 -18.523438 16.234375 -17.703125 C 17.523438 -16.878906 18.546875 -15.75 19.296875 -14.3125 C 20.046875 -12.875 20.421875 -11.207031 20.421875 -9.3125 C 20.421875 -7.40625 20.046875 -5.726562 19.296875 -4.28125 C 18.546875 -2.84375 17.535156 -1.710938 16.265625 -0.890625 C 15.003906 -0.0664062 13.585938 0.34375 12.015625 0.34375 C 11.085938 0.34375 10.21875 0.191406 9.40625 -0.109375 C 8.601562 -0.410156 7.894531 -0.789062 7.28125 -1.25 C 6.664062 -1.707031 6.1875 -2.175781 5.84375 -2.65625 C 5.507812 -3.132812 5.34375 -3.535156 5.34375 -3.859375 L 6.421875 -4.3125 L 6.421875 4.828125 C 6.421875 5.429688 6.222656 5.9375 5.828125 6.34375 C 5.441406 6.75 4.945312 6.953125 4.34375 6.953125 C 3.738281 6.953125 3.238281 6.753906 2.84375 6.359375 C 2.445312 5.960938 2.25 5.453125 2.25 4.828125 L 2.25 -16.46875 C 2.25 -17.070312 2.445312 -17.570312 2.84375 -17.96875 C 3.238281 -18.375 3.738281 -18.578125 4.34375 -18.578125 C 4.945312 -18.578125 5.441406 -18.375 5.828125 -17.96875 C 6.222656 -17.570312 6.421875 -17.070312 6.421875 -16.46875 L 6.421875 -14.765625 L 5.828125 -15.078125 C 5.828125 -15.378906 5.988281 -15.742188 6.3125 -16.171875 C 6.644531 -16.597656 7.085938 -17.023438 7.640625 -17.453125 C 8.191406 -17.878906 8.832031 -18.234375 9.5625 -18.515625 C 10.289062 -18.796875 11.0625 -18.9375 11.875 -18.9375 Z M 11.359375 -15.109375 C 10.335938 -15.109375 9.441406 -14.851562 8.671875 -14.34375 C 7.910156 -13.832031 7.316406 -13.140625 6.890625 -12.265625 C 6.460938 -11.398438 6.25 -10.414062 6.25 -9.3125 C 6.25 -8.21875 6.460938 -7.222656 6.890625 -6.328125 C 7.316406 -5.441406 7.910156 -4.742188 8.671875 -4.234375 C 9.441406 -3.722656 10.335938 -3.46875 11.359375 -3.46875 C 12.378906 -3.46875 13.265625 -3.722656 14.015625 -4.234375 C 14.765625 -4.742188 15.351562 -5.441406 15.78125 -6.328125 C 16.207031 -7.222656 16.421875 -8.21875 16.421875 -9.3125 C 16.421875 -10.414062 16.207031 -11.398438 15.78125 -12.265625 C 15.351562 -13.140625 14.765625 -13.832031 14.015625 -14.34375 C 13.265625 -14.851562 12.378906 -15.109375 11.359375 -15.109375 Z M 11.359375 -15.109375 "/></g></g></g><g fill="#ffffff" fill-opacity="1"><g transform="translate(110.816029, 45.215053)"><g><path d="M 10.53125 -18.9375 C 11.84375 -18.9375 12.988281 -18.796875 13.96875 -18.515625 C 14.957031 -18.234375 15.722656 -17.84375 16.265625 -17.34375 C 16.816406 -16.851562 17.09375 -16.257812 17.09375 -15.5625 C 17.09375 -15.09375 16.953125 -14.65625 16.671875 -14.25 C 16.390625 -13.851562 15.984375 -13.65625 15.453125 -13.65625 C 15.085938 -13.65625 14.78125 -13.707031 14.53125 -13.8125 C 14.289062 -13.914062 14.078125 -14.046875 13.890625 -14.203125 C 13.703125 -14.367188 13.484375 -14.519531 13.234375 -14.65625 C 13.003906 -14.789062 12.648438 -14.898438 12.171875 -14.984375 C 11.703125 -15.066406 11.347656 -15.109375 11.109375 -15.109375 C 9.929688 -15.109375 8.929688 -14.851562 8.109375 -14.34375 C 7.285156 -13.832031 6.65625 -13.140625 6.21875 -12.265625 C 5.78125 -11.398438 5.5625 -10.40625 5.5625 -9.28125 C 5.5625 -8.164062 5.785156 -7.171875 6.234375 -6.296875 C 6.679688 -5.429688 7.304688 -4.742188 8.109375 -4.234375 C 8.910156 -3.722656 9.832031 -3.46875 10.875 -3.46875 C 11.445312 -3.46875 11.941406 -3.503906 12.359375 -3.578125 C 12.773438 -3.648438 13.125 -3.753906 13.40625 -3.890625 C 13.726562 -4.078125 14.015625 -4.273438 14.265625 -4.484375 C 14.523438 -4.691406 14.910156 -4.796875 15.421875 -4.796875 C 16.023438 -4.796875 16.488281 -4.601562 16.8125 -4.21875 C 17.132812 -3.832031 17.296875 -3.363281 17.296875 -2.8125 C 17.296875 -2.226562 16.972656 -1.695312 16.328125 -1.21875 C 15.679688 -0.75 14.828125 -0.367188 13.765625 -0.078125 C 12.710938 0.203125 11.570312 0.34375 10.34375 0.34375 C 8.519531 0.34375 6.9375 -0.078125 5.59375 -0.921875 C 4.25 -1.765625 3.210938 -2.914062 2.484375 -4.375 C 1.753906 -5.832031 1.390625 -7.46875 1.390625 -9.28125 C 1.390625 -11.175781 1.773438 -12.847656 2.546875 -14.296875 C 3.328125 -15.742188 4.40625 -16.878906 5.78125 -17.703125 C 7.15625 -18.523438 8.738281 -18.9375 10.53125 -18.9375 Z M 10.53125 -18.9375 "/></g></g></g><g fill="#ffffff" fill-opacity="1"><g transform="translate(128.878123, 45.215053)"><g><path d="M 17.46875 -18.9375 C 18.070312 -18.9375 18.570312 -18.738281 18.96875 -18.34375 C 19.363281 -17.945312 19.5625 -17.4375 19.5625 -16.8125 L 19.5625 -2.125 C 19.5625 -1.519531 19.363281 -1.015625 18.96875 -0.609375 C 18.570312 -0.203125 18.070312 0 17.46875 0 C 16.863281 0 16.363281 -0.203125 15.96875 -0.609375 C 15.582031 -1.015625 15.390625 -1.519531 15.390625 -2.125 L 15.390625 -3.828125 L 16.15625 -3.515625 C 16.15625 -3.210938 15.988281 -2.84375 15.65625 -2.40625 C 15.332031 -1.976562 14.894531 -1.554688 14.34375 -1.140625 C 13.789062 -0.722656 13.132812 -0.367188 12.375 -0.078125 C 11.625 0.203125 10.8125 0.34375 9.9375 0.34375 C 8.332031 0.34375 6.878906 -0.0664062 5.578125 -0.890625 C 4.285156 -1.710938 3.265625 -2.84375 2.515625 -4.28125 C 1.765625 -5.726562 1.390625 -7.394531 1.390625 -9.28125 C 1.390625 -11.175781 1.765625 -12.847656 2.515625 -14.296875 C 3.265625 -15.742188 4.273438 -16.878906 5.546875 -17.703125 C 6.828125 -18.523438 8.242188 -18.9375 9.796875 -18.9375 C 10.785156 -18.9375 11.695312 -18.785156 12.53125 -18.484375 C 13.375 -18.179688 14.097656 -17.796875 14.703125 -17.328125 C 15.316406 -16.867188 15.789062 -16.398438 16.125 -15.921875 C 16.46875 -15.453125 16.640625 -15.054688 16.640625 -14.734375 L 15.390625 -14.28125 L 15.390625 -16.8125 C 15.390625 -17.414062 15.582031 -17.921875 15.96875 -18.328125 C 16.363281 -18.734375 16.863281 -18.9375 17.46875 -18.9375 Z M 10.453125 -3.46875 C 11.472656 -3.46875 12.363281 -3.722656 13.125 -4.234375 C 13.894531 -4.742188 14.492188 -5.4375 14.921875 -6.3125 C 15.347656 -7.195312 15.5625 -8.1875 15.5625 -9.28125 C 15.5625 -10.382812 15.347656 -11.375 14.921875 -12.25 C 14.492188 -13.132812 13.894531 -13.832031 13.125 -14.34375 C 12.363281 -14.851562 11.472656 -15.109375 10.453125 -15.109375 C 9.460938 -15.109375 8.582031 -14.851562 7.8125 -14.34375 C 7.050781 -13.832031 6.457031 -13.132812 6.03125 -12.25 C 5.601562 -11.375 5.390625 -10.382812 5.390625 -9.28125 C 5.390625 -8.1875 5.601562 -7.195312 6.03125 -6.3125 C 6.457031 -5.4375 7.050781 -4.742188 7.8125 -4.234375 C 8.582031 -3.722656 9.460938 -3.46875 10.453125 -3.46875 Z M 10.453125 -3.46875 "/></g></g></g><g fill="#ffffff" fill-opacity="1"><g transform="translate(150.691577, 45.215053)"><g><path d="M 4.6875 0 C 4.082031 0 3.582031 -0.203125 3.1875 -0.609375 C 2.800781 -1.015625 2.609375 -1.519531 2.609375 -2.125 L 2.609375 -23.578125 C 2.609375 -24.179688 2.800781 -24.6875 3.1875 -25.09375 C 3.582031 -25.5 4.082031 -25.703125 4.6875 -25.703125 C 5.289062 -25.703125 5.785156 -25.5 6.171875 -25.09375 C 6.566406 -24.6875 6.765625 -24.179688 6.765625 -23.578125 L 6.765625 -2.125 C 6.765625 -1.519531 6.566406 -1.015625 6.171875 -0.609375 C 5.785156 -0.203125 5.289062 0 4.6875 0 Z M 15.734375 -18.578125 C 16.265625 -18.578125 16.726562 -18.359375 17.125 -17.921875 C 17.519531 -17.484375 17.71875 -17.054688 17.71875 -16.640625 C 17.71875 -16.078125 17.4375 -15.554688 16.875 -15.078125 L 6.421875 -5.453125 L 6.25 -10.25 L 14.203125 -17.921875 C 14.640625 -18.359375 15.148438 -18.578125 15.734375 -18.578125 Z M 16.25 -0.03125 C 15.65625 -0.03125 15.148438 -0.265625 14.734375 -0.734375 L 8.296875 -7.53125 L 11.46875 -10.453125 L 17.71875 -3.640625 C 18.15625 -3.179688 18.375 -2.660156 18.375 -2.078125 C 18.375 -1.484375 18.132812 -0.992188 17.65625 -0.609375 C 17.1875 -0.222656 16.71875 -0.03125 16.25 -0.03125 Z M 16.25 -0.03125 "/></g></g></g><g fill="#ffffff" fill-opacity="1"><g transform="translate(170.455674, 45.215053)"><g><path d="M 11.015625 0.34375 C 9.046875 0.34375 7.335938 -0.0664062 5.890625 -0.890625 C 4.441406 -1.710938 3.328125 -2.828125 2.546875 -4.234375 C 1.773438 -5.648438 1.390625 -7.25 1.390625 -9.03125 C 1.390625 -11.113281 1.8125 -12.890625 2.65625 -14.359375 C 3.5 -15.828125 4.601562 -16.957031 5.96875 -17.75 C 7.34375 -18.539062 8.789062 -18.9375 10.3125 -18.9375 C 11.5 -18.9375 12.617188 -18.691406 13.671875 -18.203125 C 14.722656 -17.710938 15.65625 -17.046875 16.46875 -16.203125 C 17.28125 -15.359375 17.921875 -14.378906 18.390625 -13.265625 C 18.867188 -12.148438 19.109375 -10.96875 19.109375 -9.71875 C 19.078125 -9.164062 18.851562 -8.710938 18.4375 -8.359375 C 18.019531 -8.015625 17.535156 -7.84375 16.984375 -7.84375 L 3.71875 -7.84375 L 2.671875 -11.328125 L 15.421875 -11.328125 L 14.65625 -10.625 L 14.65625 -11.5625 C 14.613281 -12.238281 14.375 -12.84375 13.9375 -13.375 C 13.507812 -13.90625 12.976562 -14.328125 12.34375 -14.640625 C 11.707031 -14.953125 11.03125 -15.109375 10.3125 -15.109375 C 9.625 -15.109375 8.976562 -15.015625 8.375 -14.828125 C 7.769531 -14.640625 7.242188 -14.328125 6.796875 -13.890625 C 6.359375 -13.453125 6.015625 -12.863281 5.765625 -12.125 C 5.515625 -11.382812 5.390625 -10.445312 5.390625 -9.3125 C 5.390625 -8.0625 5.648438 -7 6.171875 -6.125 C 6.691406 -5.257812 7.359375 -4.597656 8.171875 -4.140625 C 8.992188 -3.691406 9.867188 -3.46875 10.796875 -3.46875 C 11.660156 -3.46875 12.34375 -3.535156 12.84375 -3.671875 C 13.351562 -3.816406 13.765625 -3.988281 14.078125 -4.1875 C 14.390625 -4.382812 14.675781 -4.550781 14.9375 -4.6875 C 15.351562 -4.894531 15.742188 -5 16.109375 -5 C 16.617188 -5 17.039062 -4.820312 17.375 -4.46875 C 17.71875 -4.125 17.890625 -3.722656 17.890625 -3.265625 C 17.890625 -2.640625 17.566406 -2.070312 16.921875 -1.5625 C 16.316406 -1.050781 15.46875 -0.601562 14.375 -0.21875 C 13.289062 0.15625 12.171875 0.34375 11.015625 0.34375 Z M 11.015625 0.34375 "/></g></g></g><path fill="#ffffff" d="M 47.851562 34.675781 C 47.226562 34.675781 46.714844 34.167969 46.714844 33.539062 C 46.714844 32.910156 47.226562 32.402344 47.851562 32.402344 C 48.480469 32.402344 48.988281 32.910156 48.988281 33.539062 C 48.988281 34.164062 48.480469 34.675781 47.851562 34.675781 Z M 47.851562 34.675781 " fill-opacity="1" fill-rule="nonzero"/><path fill="#ffffff" d="M 48.480469 37.183594 C 48.566406 37.324219 48.621094 37.472656 48.648438 37.632812 C 48.671875 37.796875 48.667969 37.953125 48.628906 38.113281 C 48.59375 38.273438 48.527344 38.417969 48.429688 38.550781 C 48.335938 38.679688 48.21875 38.789062 48.078125 38.875 C 47.941406 38.960938 47.792969 39.015625 47.632812 39.042969 C 47.46875 39.070312 47.308594 39.0625 47.152344 39.027344 C 46.992188 38.988281 46.847656 38.921875 46.714844 38.828125 C 46.585938 38.730469 46.476562 38.613281 46.390625 38.476562 C 46.304688 38.339844 46.25 38.1875 46.222656 38.027344 C 46.195312 37.867188 46.203125 37.707031 46.238281 37.546875 C 46.277344 37.390625 46.34375 37.246094 46.4375 37.113281 C 46.535156 36.980469 46.648438 36.871094 46.789062 36.785156 C 46.925781 36.699219 47.078125 36.644531 47.238281 36.617188 C 47.398438 36.59375 47.558594 36.597656 47.714844 36.636719 C 47.875 36.671875 48.019531 36.738281 48.152344 36.835938 C 48.285156 36.929688 48.394531 37.046875 48.480469 37.183594 Z M 48.480469 37.183594 " fill-opacity="1" fill-rule="nonzero"/><path fill="#ffffff" d="M 47.503906 41.957031 C 47.503906 42.132812 47.46875 42.300781 47.402344 42.460938 C 47.335938 42.621094 47.238281 42.765625 47.117188 42.890625 C 46.992188 43.011719 46.851562 43.109375 46.6875 43.175781 C 46.527344 43.242188 46.359375 43.273438 46.183594 43.273438 C 46.007812 43.273438 45.839844 43.242188 45.679688 43.175781 C 45.519531 43.109375 45.375 43.011719 45.25 42.890625 C 45.128906 42.765625 45.03125 42.621094 44.964844 42.460938 C 44.898438 42.300781 44.867188 42.132812 44.867188 41.957031 C 44.867188 41.78125 44.898438 41.613281 44.964844 41.453125 C 45.03125 41.289062 45.128906 41.148438 45.25 41.023438 C 45.375 40.902344 45.519531 40.804688 45.679688 40.738281 C 45.839844 40.671875 46.007812 40.636719 46.183594 40.636719 C 46.359375 40.636719 46.527344 40.671875 46.6875 40.738281 C 46.851562 40.804688 46.992188 40.902344 47.117188 41.023438 C 47.238281 41.148438 47.335938 41.289062 47.402344 41.453125 C 47.46875 41.613281 47.503906 41.78125 47.503906 41.957031 Z M 47.503906 41.957031 " fill-opacity="1" fill-rule="nonzero"/><path fill="#ffffff" d="M 44.148438 47.160156 C 43.371094 47.160156 42.746094 46.53125 42.746094 45.757812 C 42.746094 44.980469 43.375 44.355469 44.148438 44.355469 C 44.925781 44.355469 45.550781 44.984375 45.550781 45.757812 C 45.550781 46.535156 44.921875 47.160156 44.148438 47.160156 Z M 44.148438 47.160156 " fill-opacity="1" fill-rule="nonzero"/><path fill="#ffffff" d="M 41.6875 47.636719 C 41.882812 47.675781 42.058594 47.746094 42.222656 47.855469 C 42.386719 47.960938 42.523438 48.097656 42.632812 48.257812 C 42.742188 48.421875 42.816406 48.597656 42.855469 48.789062 C 42.894531 48.980469 42.894531 49.171875 42.859375 49.363281 C 42.820312 49.558594 42.75 49.734375 42.640625 49.898438 C 42.535156 50.0625 42.398438 50.199219 42.238281 50.308594 C 42.074219 50.417969 41.898438 50.492188 41.707031 50.53125 C 41.515625 50.570312 41.324219 50.570312 41.132812 50.535156 C 40.941406 50.496094 40.761719 50.425781 40.597656 50.316406 C 40.433594 50.210938 40.296875 50.074219 40.1875 49.914062 C 40.078125 49.75 40.003906 49.574219 39.964844 49.382812 C 39.925781 49.191406 39.925781 49 39.960938 48.808594 C 40 48.613281 40.070312 48.4375 40.179688 48.273438 C 40.285156 48.109375 40.421875 47.972656 40.582031 47.863281 C 40.746094 47.753906 40.921875 47.679688 41.113281 47.640625 C 41.304688 47.601562 41.496094 47.601562 41.6875 47.636719 Z M 41.6875 47.636719 " fill-opacity="1" fill-rule="nonzero"/><path fill="#ffffff" d="M 39.589844 51.640625 C 39.613281 51.839844 39.601562 52.035156 39.546875 52.230469 C 39.492188 52.425781 39.402344 52.601562 39.277344 52.761719 C 39.15625 52.921875 39.003906 53.050781 38.828125 53.148438 C 38.652344 53.25 38.464844 53.308594 38.265625 53.335938 C 38.066406 53.359375 37.867188 53.34375 37.675781 53.292969 C 37.480469 53.238281 37.300781 53.148438 37.144531 53.023438 C 36.984375 52.898438 36.855469 52.75 36.757812 52.574219 C 36.65625 52.398438 36.59375 52.210938 36.570312 52.011719 C 36.546875 51.8125 36.558594 51.613281 36.613281 51.417969 C 36.667969 51.222656 36.757812 51.046875 36.878906 50.890625 C 37.003906 50.730469 37.15625 50.601562 37.332031 50.5 C 37.503906 50.402344 37.695312 50.339844 37.894531 50.316406 C 38.09375 50.289062 38.292969 50.304688 38.484375 50.359375 C 38.679688 50.414062 38.855469 50.5 39.015625 50.625 C 39.175781 50.75 39.304688 50.898438 39.402344 51.074219 C 39.503906 51.25 39.566406 51.4375 39.589844 51.640625 Z M 39.589844 51.640625 " fill-opacity="1" fill-rule="nonzero"/><path fill="#ffffff" d="M 35.816406 53.863281 C 35.816406 54.066406 35.777344 54.261719 35.699219 54.449219 C 35.621094 54.640625 35.511719 54.804688 35.367188 54.949219 C 35.222656 55.09375 35.054688 55.207031 34.867188 55.285156 C 34.679688 55.363281 34.484375 55.402344 34.277344 55.402344 C 34.074219 55.402344 33.878906 55.363281 33.691406 55.285156 C 33.5 55.207031 33.335938 55.09375 33.191406 54.949219 C 33.046875 54.804688 32.933594 54.640625 32.855469 54.449219 C 32.777344 54.261719 32.738281 54.066406 32.738281 53.863281 C 32.738281 53.65625 32.777344 53.460938 32.855469 53.273438 C 32.933594 53.085938 33.046875 52.917969 33.191406 52.773438 C 33.335938 52.628906 33.5 52.519531 33.691406 52.441406 C 33.878906 52.363281 34.074219 52.324219 34.277344 52.324219 C 34.484375 52.324219 34.679688 52.363281 34.867188 52.441406 C 35.054688 52.519531 35.222656 52.628906 35.367188 52.773438 C 35.511719 52.917969 35.621094 53.085938 35.699219 53.273438 C 35.777344 53.460938 35.816406 53.65625 35.816406 53.863281 Z M 35.816406 53.863281 " fill-opacity="1" fill-rule="nonzero"/><path fill="#ffffff" d="M 31.679688 55.113281 C 31.679688 55.3125 31.640625 55.507812 31.5625 55.695312 C 31.484375 55.882812 31.375 56.046875 31.230469 56.191406 C 31.089844 56.335938 30.921875 56.445312 30.738281 56.523438 C 30.550781 56.601562 30.355469 56.640625 30.152344 56.640625 C 29.949219 56.640625 29.753906 56.601562 29.566406 56.523438 C 29.378906 56.445312 29.214844 56.335938 29.070312 56.191406 C 28.929688 56.046875 28.816406 55.882812 28.738281 55.695312 C 28.664062 55.507812 28.625 55.3125 28.625 55.113281 C 28.625 54.910156 28.664062 54.714844 28.738281 54.527344 C 28.816406 54.339844 28.929688 54.175781 29.070312 54.03125 C 29.214844 53.886719 29.378906 53.777344 29.566406 53.699219 C 29.753906 53.621094 29.949219 53.582031 30.152344 53.582031 C 30.355469 53.582031 30.550781 53.621094 30.738281 53.699219 C 30.921875 53.777344 31.089844 53.886719 31.230469 54.03125 C 31.375 54.175781 31.484375 54.339844 31.5625 54.527344 C 31.640625 54.714844 31.679688 54.910156 31.679688 55.113281 Z M 31.679688 55.113281 " fill-opacity="1" fill-rule="nonzero"/><g clip-path="url(#cd6504cd0d)"><path fill="#ffffff" d="M 26.917969 54.472656 C 27.058594 54.613281 27.164062 54.773438 27.242188 54.957031 C 27.316406 55.140625 27.355469 55.332031 27.355469 55.53125 C 27.355469 55.726562 27.316406 55.917969 27.242188 56.101562 C 27.164062 56.285156 27.058594 56.449219 26.917969 56.585938 C 26.777344 56.726562 26.613281 56.835938 26.433594 56.910156 C 26.25 56.988281 26.058594 57.027344 25.859375 57.027344 C 25.660156 57.027344 25.46875 56.988281 25.285156 56.910156 C 25.105469 56.835938 24.941406 56.726562 24.800781 56.585938 C 24.660156 56.449219 24.554688 56.285156 24.476562 56.101562 C 24.402344 55.917969 24.363281 55.726562 24.363281 55.53125 C 24.363281 55.332031 24.402344 55.140625 24.476562 54.957031 C 24.554688 54.773438 24.660156 54.613281 24.800781 54.472656 C 24.941406 54.332031 25.105469 54.222656 25.285156 54.148438 C 25.46875 54.070312 25.660156 54.035156 25.859375 54.035156 C 26.058594 54.035156 26.25 54.070312 26.433594 54.148438 C 26.613281 54.222656 26.777344 54.332031 26.917969 54.472656 Z M 26.917969 54.472656 " fill-opacity="1" fill-rule="nonzero"/></g><path fill="#ffffff" d="M 22.589844 54.089844 C 22.722656 54.226562 22.828125 54.382812 22.902344 54.558594 C 22.972656 54.734375 23.011719 54.921875 23.011719 55.113281 C 23.011719 55.304688 22.972656 55.488281 22.902344 55.664062 C 22.828125 55.839844 22.722656 55.996094 22.589844 56.132812 C 22.453125 56.265625 22.296875 56.371094 22.121094 56.445312 C 21.941406 56.515625 21.757812 56.554688 21.566406 56.554688 C 21.375 56.554688 21.191406 56.519531 21.015625 56.445312 C 20.839844 56.371094 20.683594 56.265625 20.546875 56.132812 C 20.414062 55.996094 20.308594 55.839844 20.234375 55.664062 C 20.160156 55.488281 20.125 55.304688 20.125 55.113281 C 20.125 54.921875 20.160156 54.734375 20.234375 54.558594 C 20.308594 54.382812 20.414062 54.226562 20.546875 54.089844 C 20.683594 53.957031 20.839844 53.851562 21.015625 53.777344 C 21.191406 53.707031 21.375 53.667969 21.566406 53.667969 C 21.757812 53.667969 21.941406 53.707031 22.121094 53.777344 C 22.296875 53.851562 22.453125 53.957031 22.589844 54.089844 Z M 22.589844 54.089844 " fill-opacity="1" fill-rule="nonzero"/><path fill="#ffffff" d="M 17.757812 52.527344 C 17.933594 52.570312 18.097656 52.644531 18.246094 52.75 C 18.394531 52.855469 18.515625 52.988281 18.609375 53.140625 C 18.707031 53.296875 18.769531 53.464844 18.796875 53.644531 C 18.828125 53.824219 18.820312 54.003906 18.777344 54.183594 C 18.738281 54.359375 18.664062 54.523438 18.554688 54.671875 C 18.449219 54.816406 18.320312 54.941406 18.164062 55.035156 C 18.007812 55.132812 17.839844 55.195312 17.660156 55.222656 C 17.480469 55.253906 17.300781 55.246094 17.125 55.203125 C 16.945312 55.164062 16.785156 55.089844 16.636719 54.980469 C 16.488281 54.875 16.367188 54.742188 16.269531 54.589844 C 16.175781 54.433594 16.113281 54.265625 16.082031 54.085938 C 16.054688 53.90625 16.058594 53.726562 16.101562 53.550781 C 16.144531 53.371094 16.21875 53.210938 16.324219 53.0625 C 16.429688 52.914062 16.5625 52.792969 16.71875 52.695312 C 16.871094 52.597656 17.039062 52.535156 17.21875 52.507812 C 17.398438 52.480469 17.578125 52.484375 17.757812 52.527344 Z M 17.757812 52.527344 " fill-opacity="1" fill-rule="nonzero"/><path fill="#ffffff" d="M 13.796875 50.542969 C 13.96875 50.5625 14.128906 50.617188 14.277344 50.699219 C 14.425781 50.785156 14.554688 50.894531 14.660156 51.03125 C 14.765625 51.164062 14.84375 51.316406 14.886719 51.480469 C 14.933594 51.644531 14.945312 51.8125 14.925781 51.984375 C 14.902344 52.15625 14.851562 52.316406 14.765625 52.464844 C 14.683594 52.613281 14.574219 52.742188 14.4375 52.847656 C 14.300781 52.953125 14.152344 53.027344 13.984375 53.074219 C 13.820312 53.121094 13.652344 53.132812 13.480469 53.109375 C 13.3125 53.089844 13.152344 53.039062 13.003906 52.953125 C 12.851562 52.867188 12.726562 52.757812 12.621094 52.621094 C 12.515625 52.488281 12.4375 52.335938 12.394531 52.171875 C 12.347656 52.007812 12.335938 51.839844 12.355469 51.667969 C 12.375 51.496094 12.429688 51.339844 12.515625 51.1875 C 12.597656 51.039062 12.707031 50.910156 12.84375 50.804688 C 12.980469 50.699219 13.128906 50.625 13.296875 50.578125 C 13.460938 50.535156 13.628906 50.519531 13.796875 50.542969 Z M 13.796875 50.542969 " fill-opacity="1" fill-rule="nonzero"/><path fill="#ffffff" d="M 11.5 48.941406 C 11.519531 49.101562 11.507812 49.253906 11.464844 49.410156 C 11.421875 49.5625 11.351562 49.699219 11.253906 49.828125 C 11.15625 49.953125 11.039062 50.054688 10.898438 50.132812 C 10.761719 50.210938 10.613281 50.257812 10.457031 50.277344 C 10.296875 50.296875 10.140625 50.285156 9.988281 50.242188 C 9.835938 50.203125 9.695312 50.132812 9.570312 50.035156 C 9.445312 49.9375 9.34375 49.816406 9.265625 49.679688 C 9.1875 49.539062 9.136719 49.394531 9.117188 49.234375 C 9.101562 49.078125 9.109375 48.921875 9.152344 48.769531 C 9.195312 48.613281 9.265625 48.476562 9.363281 48.351562 C 9.460938 48.226562 9.578125 48.125 9.71875 48.046875 C 9.855469 47.964844 10.003906 47.917969 10.164062 47.898438 C 10.320312 47.878906 10.476562 47.890625 10.628906 47.933594 C 10.78125 47.976562 10.921875 48.046875 11.046875 48.144531 C 11.171875 48.242188 11.273438 48.359375 11.351562 48.496094 C 11.429688 48.636719 11.480469 48.785156 11.5 48.941406 Z M 11.5 48.941406 " fill-opacity="1" fill-rule="nonzero"/><path fill="#ffffff" d="M 7.570312 46.84375 C 6.96875 46.84375 6.484375 46.359375 6.484375 45.757812 C 6.484375 45.15625 6.96875 44.667969 7.570312 44.667969 C 8.171875 44.667969 8.660156 45.15625 8.660156 45.757812 C 8.660156 46.359375 8.171875 46.84375 7.570312 46.84375 Z M 7.570312 46.84375 " fill-opacity="1" fill-rule="nonzero"/><path fill="#ffffff" d="M 5.757812 41.015625 C 6.019531 41.074219 6.21875 41.21875 6.359375 41.449219 C 6.5 41.675781 6.539062 41.921875 6.480469 42.179688 C 6.417969 42.441406 6.273438 42.644531 6.046875 42.785156 C 5.816406 42.925781 5.574219 42.964844 5.3125 42.902344 C 5.050781 42.839844 4.851562 42.695312 4.710938 42.46875 C 4.570312 42.242188 4.527344 41.996094 4.589844 41.734375 C 4.652344 41.472656 4.796875 41.273438 5.023438 41.132812 C 5.253906 40.992188 5.496094 40.953125 5.757812 41.015625 Z M 5.757812 41.015625 " fill-opacity="1" fill-rule="nonzero"/><g clip-path="url(#95c38065f9)"><path fill="#ffffff" d="M 5.066406 37.503906 C 5.15625 37.722656 5.15625 37.9375 5.066406 38.152344 C 4.976562 38.367188 4.824219 38.519531 4.609375 38.609375 C 4.394531 38.699219 4.179688 38.699219 3.960938 38.609375 C 3.746094 38.519531 3.59375 38.367188 3.503906 38.152344 C 3.417969 37.9375 3.417969 37.722656 3.503906 37.503906 C 3.59375 37.289062 3.746094 37.136719 3.960938 37.046875 C 4.179688 36.957031 4.394531 36.957031 4.609375 37.046875 C 4.824219 37.136719 4.976562 37.289062 5.066406 37.503906 Z M 5.066406 37.503906 " fill-opacity="1" fill-rule="nonzero"/></g><g clip-path="url(#eff877dde5)"><path fill="#ffffff" d="M 3.867188 34.253906 C 3.472656 34.253906 3.148438 33.933594 3.148438 33.539062 C 3.148438 33.140625 3.472656 32.820312 3.867188 32.820312 C 4.261719 32.820312 4.585938 33.140625 4.585938 33.539062 C 4.585938 33.933594 4.265625 34.253906 3.867188 34.253906 Z M 3.867188 34.253906 " fill-opacity="1" fill-rule="nonzero"/></g><g clip-path="url(#ba789edc69)"><path fill="#ffffff" d="M 4.285156 29.839844 C 3.957031 29.839844 3.691406 29.574219 3.691406 29.246094 C 3.691406 28.917969 3.957031 28.652344 4.285156 28.652344 C 4.613281 28.652344 4.878906 28.917969 4.878906 29.246094 C 4.882812 29.574219 4.613281 29.839844 4.285156 29.839844 Z M 4.285156 29.839844 " fill-opacity="1" fill-rule="nonzero"/></g><path fill="#ffffff" d="M 5.535156 25.59375 C 5.273438 25.59375 5.0625 25.382812 5.0625 25.121094 C 5.0625 24.855469 5.273438 24.644531 5.535156 24.644531 C 5.800781 24.644531 6.011719 24.859375 6.011719 25.121094 C 6.011719 25.382812 5.800781 25.59375 5.535156 25.59375 Z M 5.535156 25.59375 " fill-opacity="1" fill-rule="nonzero"/><path fill="#ffffff" d="M 7.574219 21.6875 C 7.367188 21.6875 7.203125 21.523438 7.203125 21.320312 C 7.203125 21.113281 7.367188 20.949219 7.574219 20.949219 C 7.777344 20.949219 7.941406 21.113281 7.941406 21.320312 C 7.941406 21.523438 7.777344 21.6875 7.574219 21.6875 Z M 7.574219 21.6875 " fill-opacity="1" fill-rule="nonzero"/><path fill="#ffffff" d="M 10.585938 17.988281 C 10.585938 18.0625 10.558594 18.128906 10.503906 18.183594 C 10.453125 18.238281 10.386719 18.265625 10.308594 18.265625 C 10.234375 18.265625 10.167969 18.238281 10.113281 18.183594 C 10.058594 18.128906 10.03125 18.0625 10.03125 17.988281 C 10.03125 17.910156 10.058594 17.84375 10.113281 17.789062 C 10.167969 17.734375 10.234375 17.710938 10.308594 17.710938 C 10.386719 17.710938 10.453125 17.734375 10.503906 17.789062 C 10.558594 17.84375 10.585938 17.910156 10.585938 17.988281 Z M 10.585938 17.988281 " fill-opacity="1" fill-rule="nonzero"/><path fill="#ffffff" d="M 13.640625 15.453125 C 13.53125 15.453125 13.4375 15.363281 13.4375 15.25 C 13.4375 15.136719 13.53125 15.046875 13.640625 15.046875 C 13.753906 15.046875 13.84375 15.136719 13.84375 15.25 C 13.84375 15.363281 13.753906 15.453125 13.640625 15.453125 Z M 13.640625 15.453125 " fill-opacity="1" fill-rule="nonzero"/><path fill="#ffffff" d="M 17.441406 13.359375 C 17.363281 13.359375 17.296875 13.292969 17.296875 13.214844 C 17.296875 13.132812 17.363281 13.070312 17.441406 13.070312 C 17.523438 13.070312 17.585938 13.132812 17.585938 13.214844 C 17.585938 13.292969 17.523438 13.359375 17.441406 13.359375 Z M 17.441406 13.359375 " fill-opacity="1" fill-rule="nonzero"/><g clip-path="url(#331ddd473f)"><path fill="#ffffff" d="M 21.570312 12.066406 C 21.511719 12.066406 21.464844 12.019531 21.464844 11.964844 C 21.464844 11.90625 21.511719 11.859375 21.570312 11.859375 C 21.625 11.859375 21.671875 11.90625 21.671875 11.964844 C 21.671875 12.019531 21.625 12.066406 21.570312 12.066406 Z M 21.570312 12.066406 " fill-opacity="1" fill-rule="nonzero"/></g><g clip-path="url(#55515784d3)"><path fill="#ffffff" d="M 25.859375 11.625 C 25.816406 11.625 25.78125 11.589844 25.78125 11.542969 C 25.78125 11.5 25.816406 11.464844 25.859375 11.464844 C 25.902344 11.464844 25.941406 11.5 25.941406 11.542969 C 25.941406 11.589844 25.90625 11.625 25.859375 11.625 Z M 25.859375 11.625 " fill-opacity="1" fill-rule="nonzero"/></g><g clip-path="url(#2fc7073e18)"><path fill="#ffffff" d="M 30.152344 12.058594 C 30.097656 12.058594 30.054688 12.015625 30.054688 11.964844 C 30.054688 11.910156 30.097656 11.867188 30.152344 11.867188 C 30.203125 11.867188 30.246094 11.910156 30.246094 11.964844 C 30.246094 12.015625 30.203125 12.058594 30.152344 12.058594 Z M 30.152344 12.058594 " fill-opacity="1" fill-rule="nonzero"/></g><path fill="#ffffff" d="M 34.277344 13.382812 C 34.183594 13.382812 34.109375 13.308594 34.109375 13.214844 C 34.109375 13.117188 34.183594 13.042969 34.277344 13.042969 C 34.371094 13.042969 34.449219 13.117188 34.449219 13.214844 C 34.449219 13.308594 34.371094 13.382812 34.277344 13.382812 Z M 34.277344 13.382812 " fill-opacity="1" fill-rule="nonzero"/><path fill="#ffffff" d="M 38.078125 15.554688 C 37.910156 15.554688 37.773438 15.417969 37.773438 15.25 C 37.773438 15.082031 37.910156 14.945312 38.078125 14.945312 C 38.246094 14.945312 38.382812 15.082031 38.382812 15.25 C 38.382812 15.417969 38.246094 15.554688 38.078125 15.554688 Z M 38.078125 15.554688 " fill-opacity="1" fill-rule="nonzero"/><path fill="#ffffff" d="M 41.410156 18.472656 C 41.144531 18.472656 40.925781 18.253906 40.925781 17.988281 C 40.925781 17.71875 41.144531 17.5 41.410156 17.5 C 41.679688 17.5 41.894531 17.71875 41.894531 17.988281 C 41.894531 18.253906 41.679688 18.472656 41.410156 18.472656 Z M 41.410156 18.472656 " fill-opacity="1" fill-rule="nonzero"/><path fill="#ffffff" d="M 44.308594 20.65625 C 44.492188 20.699219 44.632812 20.800781 44.734375 20.960938 C 44.832031 21.121094 44.859375 21.292969 44.816406 21.480469 C 44.773438 21.664062 44.671875 21.804688 44.511719 21.902344 C 44.351562 22.003906 44.179688 22.03125 43.996094 21.988281 C 43.8125 21.945312 43.667969 21.839844 43.570312 21.679688 C 43.472656 21.519531 43.441406 21.347656 43.484375 21.164062 C 43.53125 20.980469 43.632812 20.839844 43.792969 20.738281 C 43.953125 20.640625 44.125 20.613281 44.308594 20.65625 Z M 44.308594 20.65625 " fill-opacity="1" fill-rule="nonzero"/><path fill="#ffffff" d="M 46.386719 24.277344 C 46.621094 24.332031 46.800781 24.460938 46.929688 24.664062 C 47.054688 24.871094 47.089844 25.089844 47.035156 25.324219 C 46.980469 25.558594 46.847656 25.738281 46.644531 25.863281 C 46.441406 25.992188 46.222656 26.027344 45.988281 25.972656 C 45.753906 25.914062 45.574219 25.785156 45.445312 25.582031 C 45.320312 25.375 45.285156 25.15625 45.339844 24.921875 C 45.394531 24.6875 45.523438 24.507812 45.730469 24.382812 C 45.933594 24.257812 46.152344 24.21875 46.386719 24.277344 Z M 46.386719 24.277344 " fill-opacity="1" fill-rule="nonzero"/><path fill="#ffffff" d="M 47.433594 30.273438 C 46.867188 30.273438 46.410156 29.8125 46.410156 29.246094 C 46.410156 28.679688 46.867188 28.222656 47.433594 28.222656 C 48 28.222656 48.460938 28.679688 48.460938 29.246094 C 48.460938 29.8125 48 30.273438 47.433594 30.273438 Z M 47.433594 30.273438 " fill-opacity="1" fill-rule="nonzero"/><path fill="#ffffff" d="M 38.863281 19.515625 C 39.015625 19.53125 39.15625 19.574219 39.289062 19.644531 C 39.421875 19.714844 39.535156 19.808594 39.632812 19.925781 C 39.726562 20.042969 39.796875 20.171875 39.839844 20.316406 C 39.882812 20.460938 39.898438 20.609375 39.882812 20.757812 C 39.867188 20.910156 39.824219 21.050781 39.753906 21.183594 C 39.683594 21.316406 39.589844 21.429688 39.472656 21.527344 C 39.355469 21.621094 39.226562 21.691406 39.082031 21.734375 C 38.9375 21.777344 38.789062 21.792969 38.640625 21.777344 C 38.492188 21.761719 38.347656 21.71875 38.214844 21.648438 C 38.082031 21.578125 37.96875 21.484375 37.875 21.367188 C 37.777344 21.25 37.707031 21.121094 37.664062 20.976562 C 37.621094 20.832031 37.605469 20.683594 37.621094 20.535156 C 37.636719 20.382812 37.679688 20.242188 37.75 20.109375 C 37.820312 19.976562 37.914062 19.863281 38.03125 19.765625 C 38.148438 19.671875 38.277344 19.601562 38.421875 19.558594 C 38.566406 19.515625 38.714844 19.5 38.863281 19.515625 Z M 38.863281 19.515625 " fill-opacity="1" fill-rule="nonzero"/><path fill="#ffffff" d="M 42.53125 23.488281 C 42.59375 23.640625 42.625 23.800781 42.625 23.964844 C 42.625 24.128906 42.59375 24.289062 42.53125 24.441406 C 42.46875 24.59375 42.378906 24.726562 42.261719 24.84375 C 42.144531 24.960938 42.011719 25.050781 41.859375 25.113281 C 41.707031 25.175781 41.546875 25.207031 41.382812 25.207031 C 41.21875 25.207031 41.058594 25.175781 40.90625 25.113281 C 40.753906 25.050781 40.617188 24.960938 40.5 24.84375 C 40.386719 24.726562 40.296875 24.59375 40.230469 24.441406 C 40.167969 24.289062 40.136719 24.128906 40.136719 23.964844 C 40.136719 23.800781 40.167969 23.640625 40.230469 23.488281 C 40.296875 23.335938 40.386719 23.199219 40.5 23.082031 C 40.617188 22.96875 40.753906 22.878906 40.90625 22.8125 C 41.058594 22.75 41.21875 22.71875 41.382812 22.71875 C 41.546875 22.71875 41.707031 22.75 41.859375 22.8125 C 42.011719 22.878906 42.144531 22.96875 42.261719 23.082031 C 42.378906 23.199219 42.46875 23.335938 42.53125 23.488281 Z M 42.53125 23.488281 " fill-opacity="1" fill-rule="nonzero"/><path fill="#ffffff" d="M 43.304688 26.460938 C 43.480469 26.476562 43.648438 26.527344 43.808594 26.613281 C 43.964844 26.695312 44.101562 26.808594 44.214844 26.945312 C 44.328125 27.085938 44.410156 27.242188 44.464844 27.410156 C 44.515625 27.582031 44.53125 27.757812 44.515625 27.9375 C 44.496094 28.113281 44.445312 28.28125 44.363281 28.441406 C 44.277344 28.597656 44.164062 28.734375 44.027344 28.847656 C 43.890625 28.960938 43.734375 29.042969 43.5625 29.097656 C 43.390625 29.148438 43.214844 29.164062 43.039062 29.148438 C 42.859375 29.128906 42.691406 29.078125 42.535156 28.996094 C 42.375 28.910156 42.238281 28.796875 42.125 28.660156 C 42.011719 28.519531 41.929688 28.367188 41.878906 28.195312 C 41.824219 28.023438 41.808594 27.847656 41.828125 27.671875 C 41.84375 27.492188 41.894531 27.324219 41.980469 27.167969 C 42.0625 27.007812 42.175781 26.871094 42.3125 26.757812 C 42.453125 26.644531 42.609375 26.5625 42.78125 26.511719 C 42.949219 26.457031 43.125 26.441406 43.304688 26.460938 Z M 43.304688 26.460938 " fill-opacity="1" fill-rule="nonzero"/><path fill="#ffffff" d="M 44.574219 30.613281 C 44.753906 30.6875 44.910156 30.792969 45.042969 30.925781 C 45.179688 31.0625 45.285156 31.21875 45.359375 31.394531 C 45.429688 31.574219 45.46875 31.757812 45.46875 31.949219 C 45.46875 32.140625 45.429688 32.324219 45.359375 32.5 C 45.285156 32.679688 45.179688 32.832031 45.042969 32.96875 C 44.910156 33.105469 44.753906 33.210938 44.574219 33.28125 C 44.398438 33.355469 44.214844 33.390625 44.023438 33.390625 C 43.832031 33.390625 43.648438 33.355469 43.46875 33.28125 C 43.292969 33.210938 43.136719 33.105469 43.003906 32.96875 C 42.867188 32.832031 42.761719 32.679688 42.6875 32.5 C 42.617188 32.324219 42.578125 32.140625 42.578125 31.949219 C 42.578125 31.757812 42.617188 31.574219 42.6875 31.394531 C 42.761719 31.21875 42.867188 31.0625 43.003906 30.925781 C 43.136719 30.792969 43.292969 30.6875 43.46875 30.613281 C 43.648438 30.539062 43.832031 30.503906 44.023438 30.503906 C 44.214844 30.503906 44.398438 30.539062 44.574219 30.613281 Z M 44.574219 30.613281 " fill-opacity="1" fill-rule="nonzero"/><path fill="#ffffff" d="M 45.394531 35.9375 C 45.425781 36.136719 45.417969 36.332031 45.371094 36.527344 C 45.324219 36.722656 45.246094 36.902344 45.128906 37.066406 C 45.011719 37.226562 44.867188 37.359375 44.695312 37.464844 C 44.527344 37.570312 44.339844 37.640625 44.144531 37.671875 C 43.945312 37.703125 43.75 37.699219 43.554688 37.652344 C 43.359375 37.605469 43.179688 37.523438 43.019531 37.40625 C 42.855469 37.289062 42.722656 37.144531 42.617188 36.976562 C 42.511719 36.804688 42.441406 36.621094 42.410156 36.421875 C 42.378906 36.226562 42.386719 36.027344 42.429688 35.832031 C 42.476562 35.640625 42.558594 35.460938 42.675781 35.296875 C 42.792969 35.136719 42.9375 35 43.109375 34.894531 C 43.277344 34.789062 43.460938 34.722656 43.660156 34.691406 C 43.859375 34.65625 44.054688 34.664062 44.25 34.710938 C 44.445312 34.757812 44.621094 34.839844 44.785156 34.957031 C 44.949219 35.074219 45.082031 35.214844 45.1875 35.386719 C 45.292969 35.558594 45.359375 35.742188 45.394531 35.9375 Z M 45.394531 35.9375 " fill-opacity="1" fill-rule="nonzero"/><path fill="#ffffff" d="M 42.808594 41.8125 C 41.957031 41.8125 41.269531 41.121094 41.269531 40.273438 C 41.269531 39.421875 41.957031 38.734375 42.808594 38.734375 C 43.660156 38.734375 44.347656 39.421875 44.347656 40.273438 C 44.347656 41.121094 43.65625 41.8125 42.808594 41.8125 Z M 42.808594 41.8125 " fill-opacity="1" fill-rule="nonzero"/><path fill="#ffffff" d="M 40.796875 45.523438 C 39.957031 45.523438 39.273438 44.839844 39.273438 44 C 39.273438 43.15625 39.957031 42.472656 40.796875 42.472656 C 41.640625 42.472656 42.320312 43.15625 42.320312 44 C 42.320312 44.839844 41.640625 45.523438 40.796875 45.523438 Z M 40.796875 45.523438 " fill-opacity="1" fill-rule="nonzero"/><path fill="#ffffff" d="M 39.027344 46.113281 C 39.164062 46.25 39.273438 46.410156 39.347656 46.59375 C 39.421875 46.773438 39.460938 46.960938 39.460938 47.160156 C 39.460938 47.355469 39.421875 47.542969 39.347656 47.726562 C 39.273438 47.90625 39.164062 48.066406 39.027344 48.207031 C 38.886719 48.34375 38.726562 48.453125 38.546875 48.527344 C 38.363281 48.601562 38.175781 48.640625 37.980469 48.640625 C 37.785156 48.640625 37.59375 48.601562 37.414062 48.527344 C 37.230469 48.453125 37.070312 48.34375 36.933594 48.207031 C 36.792969 48.066406 36.6875 47.90625 36.613281 47.726562 C 36.535156 47.542969 36.5 47.355469 36.5 47.160156 C 36.5 46.960938 36.535156 46.773438 36.613281 46.59375 C 36.6875 46.410156 36.792969 46.25 36.933594 46.113281 C 37.070312 45.972656 37.230469 45.867188 37.414062 45.792969 C 37.59375 45.714844 37.78125 45.679688 37.980469 45.679688 C 38.175781 45.679688 38.363281 45.714844 38.546875 45.792969 C 38.726562 45.867188 38.886719 45.972656 39.027344 46.113281 Z M 39.027344 46.113281 " fill-opacity="1" fill-rule="nonzero"/><path fill="#ffffff" d="M 35.054688 48.285156 C 35.226562 48.355469 35.382812 48.457031 35.511719 48.589844 C 35.644531 48.722656 35.746094 48.875 35.820312 49.050781 C 35.890625 49.222656 35.925781 49.402344 35.925781 49.589844 C 35.925781 49.777344 35.890625 49.957031 35.820312 50.128906 C 35.746094 50.304688 35.644531 50.457031 35.511719 50.589844 C 35.382812 50.71875 35.226562 50.824219 35.054688 50.894531 C 34.882812 50.964844 34.703125 51 34.515625 51 C 34.328125 51 34.148438 50.964844 33.972656 50.894531 C 33.800781 50.824219 33.648438 50.71875 33.515625 50.589844 C 33.382812 50.457031 33.28125 50.304688 33.210938 50.128906 C 33.140625 49.957031 33.101562 49.777344 33.101562 49.589844 C 33.101562 49.402344 33.140625 49.222656 33.210938 49.050781 C 33.28125 48.875 33.382812 48.722656 33.515625 48.589844 C 33.648438 48.457031 33.800781 48.355469 33.972656 48.285156 C 34.148438 48.214844 34.328125 48.175781 34.515625 48.175781 C 34.703125 48.175781 34.882812 48.214844 35.054688 48.285156 Z M 35.054688 48.285156 " fill-opacity="1" fill-rule="nonzero"/><path fill="#ffffff" d="M 31.902344 51.152344 C 31.902344 51.328125 31.867188 51.496094 31.800781 51.660156 C 31.734375 51.820312 31.636719 51.964844 31.515625 52.089844 C 31.390625 52.210938 31.246094 52.308594 31.085938 52.375 C 30.921875 52.441406 30.753906 52.476562 30.578125 52.476562 C 30.402344 52.476562 30.234375 52.441406 30.070312 52.375 C 29.910156 52.308594 29.765625 52.210938 29.644531 52.089844 C 29.519531 51.964844 29.421875 51.820312 29.355469 51.660156 C 29.289062 51.496094 29.253906 51.328125 29.253906 51.152344 C 29.253906 50.976562 29.289062 50.808594 29.355469 50.644531 C 29.421875 50.484375 29.519531 50.339844 29.644531 50.214844 C 29.765625 50.09375 29.910156 49.996094 30.070312 49.929688 C 30.234375 49.863281 30.402344 49.828125 30.578125 49.828125 C 30.753906 49.828125 30.921875 49.863281 31.085938 49.929688 C 31.246094 49.996094 31.390625 50.09375 31.515625 50.214844 C 31.636719 50.339844 31.734375 50.484375 31.800781 50.644531 C 31.867188 50.808594 31.902344 50.976562 31.902344 51.152344 Z M 31.902344 51.152344 " fill-opacity="1" fill-rule="nonzero"/><path fill="#ffffff" d="M 26.855469 50.640625 C 27.003906 50.703125 27.132812 50.789062 27.25 50.902344 C 27.363281 51.015625 27.449219 51.148438 27.511719 51.296875 C 27.574219 51.445312 27.605469 51.601562 27.605469 51.761719 C 27.605469 51.921875 27.574219 52.078125 27.511719 52.226562 C 27.449219 52.375 27.363281 52.507812 27.25 52.621094 C 27.132812 52.734375 27.003906 52.820312 26.855469 52.882812 C 26.707031 52.945312 26.550781 52.976562 26.390625 52.976562 C 26.230469 52.976562 26.074219 52.945312 25.925781 52.882812 C 25.777344 52.820312 25.644531 52.734375 25.53125 52.621094 C 25.417969 52.507812 25.328125 52.375 25.269531 52.226562 C 25.207031 52.078125 25.175781 51.921875 25.175781 51.761719 C 25.175781 51.601562 25.207031 51.445312 25.269531 51.296875 C 25.328125 51.148438 25.417969 51.015625 25.53125 50.902344 C 25.644531 50.789062 25.777344 50.703125 25.925781 50.640625 C 26.074219 50.578125 26.230469 50.546875 26.390625 50.546875 C 26.550781 50.546875 26.707031 50.578125 26.855469 50.640625 Z M 26.855469 50.640625 " fill-opacity="1" fill-rule="nonzero"/><path fill="#ffffff" d="M 22.171875 52.476562 C 21.574219 52.476562 21.085938 51.992188 21.085938 51.394531 C 21.085938 50.796875 21.574219 50.3125 22.171875 50.3125 C 22.769531 50.3125 23.253906 50.796875 23.253906 51.394531 C 23.253906 51.992188 22.769531 52.476562 22.171875 52.476562 Z M 22.171875 52.476562 " fill-opacity="1" fill-rule="nonzero"/><path fill="#ffffff" d="M 18.367188 49.148438 C 18.621094 49.210938 18.816406 49.351562 18.953125 49.574219 C 19.089844 49.792969 19.128906 50.03125 19.070312 50.285156 C 19.011719 50.539062 18.867188 50.734375 18.648438 50.875 C 18.425781 51.011719 18.1875 51.050781 17.933594 50.988281 C 17.679688 50.929688 17.484375 50.789062 17.347656 50.566406 C 17.210938 50.34375 17.171875 50.105469 17.230469 49.851562 C 17.292969 49.597656 17.433594 49.402344 17.652344 49.265625 C 17.875 49.128906 18.113281 49.089844 18.367188 49.148438 Z M 18.367188 49.148438 " fill-opacity="1" fill-rule="nonzero"/><path fill="#ffffff" d="M 14.550781 48.632812 C 14.109375 48.632812 13.753906 48.277344 13.753906 47.839844 C 13.753906 47.402344 14.109375 47.046875 14.550781 47.046875 C 14.988281 47.046875 15.34375 47.402344 15.34375 47.839844 C 15.34375 48.277344 14.988281 48.632812 14.550781 48.632812 Z M 14.550781 48.632812 " fill-opacity="1" fill-rule="nonzero"/><path fill="#ffffff" d="M 11.554688 45.492188 C 11.199219 45.492188 10.910156 45.203125 10.910156 44.84375 C 10.910156 44.488281 11.199219 44.199219 11.554688 44.199219 C 11.910156 44.199219 12.203125 44.488281 12.203125 44.84375 C 12.203125 45.203125 11.910156 45.492188 11.554688 45.492188 Z M 11.554688 45.492188 " fill-opacity="1" fill-rule="nonzero"/><path fill="#ffffff" d="M 9.332031 41.742188 C 9.054688 41.742188 8.832031 41.519531 8.832031 41.242188 C 8.832031 40.96875 9.054688 40.746094 9.332031 40.746094 C 9.605469 40.746094 9.832031 40.96875 9.832031 41.242188 C 9.832031 41.519531 9.605469 41.742188 9.332031 41.742188 Z M 9.332031 41.742188 " fill-opacity="1" fill-rule="nonzero"/><path fill="#ffffff" d="M 8.003906 37.597656 C 7.796875 37.597656 7.628906 37.429688 7.628906 37.222656 C 7.628906 37.015625 7.796875 36.851562 8.003906 36.851562 C 8.207031 36.851562 8.375 37.015625 8.375 37.222656 C 8.375 37.429688 8.207031 37.597656 8.003906 37.597656 Z M 8.003906 37.597656 " fill-opacity="1" fill-rule="nonzero"/><path fill="#ffffff" d="M 7.636719 33.269531 C 7.488281 33.269531 7.371094 33.152344 7.371094 33.003906 C 7.371094 32.859375 7.488281 32.738281 7.636719 32.738281 C 7.78125 32.738281 7.902344 32.859375 7.902344 33.003906 C 7.902344 33.152344 7.78125 33.269531 7.636719 33.269531 Z M 7.636719 33.269531 " fill-opacity="1" fill-rule="nonzero"/><path fill="#ffffff" d="M 8.246094 28.996094 C 8.148438 28.996094 8.066406 28.917969 8.066406 28.816406 C 8.066406 28.714844 8.144531 28.632812 8.246094 28.632812 C 8.347656 28.632812 8.429688 28.714844 8.429688 28.816406 C 8.429688 28.914062 8.347656 28.996094 8.246094 28.996094 Z M 8.246094 28.996094 " fill-opacity="1" fill-rule="nonzero"/><path fill="#ffffff" d="M 9.808594 25.003906 C 9.742188 25.003906 9.6875 24.949219 9.6875 24.878906 C 9.6875 24.8125 9.742188 24.757812 9.808594 24.757812 C 9.875 24.757812 9.929688 24.8125 9.929688 24.878906 C 9.929688 24.949219 9.875 25.003906 9.808594 25.003906 Z M 9.808594 25.003906 " fill-opacity="1" fill-rule="nonzero"/><path fill="#ffffff" d="M 12.242188 21.503906 C 12.191406 21.503906 12.152344 21.464844 12.152344 21.414062 C 12.152344 21.367188 12.191406 21.328125 12.242188 21.328125 C 12.289062 21.328125 12.328125 21.367188 12.328125 21.414062 C 12.328125 21.464844 12.289062 21.503906 12.242188 21.503906 Z M 12.242188 21.503906 " fill-opacity="1" fill-rule="nonzero"/><path fill="#ffffff" d="M 15.402344 18.691406 C 15.351562 18.691406 15.308594 18.648438 15.308594 18.597656 C 15.308594 18.546875 15.351562 18.507812 15.402344 18.507812 C 15.453125 18.507812 15.496094 18.546875 15.496094 18.597656 C 15.496094 18.648438 15.453125 18.691406 15.402344 18.691406 Z M 15.402344 18.691406 " fill-opacity="1" fill-rule="nonzero"/><path fill="#ffffff" d="M 19.128906 16.765625 C 19.03125 16.765625 18.949219 16.6875 18.949219 16.589844 C 18.949219 16.492188 19.03125 16.410156 19.128906 16.410156 C 19.226562 16.410156 19.304688 16.492188 19.304688 16.589844 C 19.304688 16.6875 19.226562 16.765625 19.128906 16.765625 Z M 19.128906 16.765625 " fill-opacity="1" fill-rule="nonzero"/><path fill="#ffffff" d="M 23.21875 15.84375 C 23.027344 15.84375 22.871094 15.6875 22.871094 15.496094 C 22.871094 15.304688 23.027344 15.148438 23.21875 15.148438 C 23.410156 15.148438 23.566406 15.304688 23.566406 15.496094 C 23.566406 15.6875 23.410156 15.84375 23.21875 15.84375 Z M 23.21875 15.84375 " fill-opacity="1" fill-rule="nonzero"/><path fill="#ffffff" d="M 27.453125 15.949219 C 27.136719 15.949219 26.878906 15.691406 26.878906 15.375 C 26.878906 15.058594 27.136719 14.800781 27.453125 14.800781 C 27.769531 14.800781 28.023438 15.058594 28.023438 15.375 C 28.023438 15.691406 27.769531 15.949219 27.453125 15.949219 Z M 27.453125 15.949219 " fill-opacity="1" fill-rule="nonzero"/><path fill="#ffffff" d="M 31.597656 17.03125 C 31.15625 17.03125 30.792969 16.671875 30.792969 16.226562 C 30.792969 15.785156 31.15625 15.421875 31.597656 15.421875 C 32.042969 15.421875 32.402344 15.785156 32.402344 16.226562 C 32.402344 16.671875 32.042969 17.03125 31.597656 17.03125 Z M 31.597656 17.03125 " fill-opacity="1" fill-rule="nonzero"/><path fill="#ffffff" d="M 35.4375 19.019531 C 34.882812 19.019531 34.4375 18.570312 34.4375 18.019531 C 34.4375 17.464844 34.882812 17.019531 35.4375 17.019531 C 35.988281 17.019531 36.4375 17.464844 36.4375 18.019531 C 36.4375 18.570312 35.988281 19.019531 35.4375 19.019531 Z M 35.4375 19.019531 " fill-opacity="1" fill-rule="nonzero"/><path fill="#ffffff" d="M 28.222656 18.324219 C 28.371094 18.335938 28.515625 18.375 28.648438 18.441406 C 28.785156 18.511719 28.902344 18.601562 29 18.714844 C 29.097656 18.828125 29.171875 18.957031 29.21875 19.101562 C 29.265625 19.242188 29.285156 19.390625 29.273438 19.539062 C 29.265625 19.691406 29.226562 19.832031 29.15625 19.96875 C 29.089844 20.101562 29 20.21875 28.886719 20.320312 C 28.773438 20.417969 28.644531 20.492188 28.5 20.539062 C 28.359375 20.585938 28.210938 20.605469 28.0625 20.59375 C 27.910156 20.582031 27.765625 20.542969 27.632812 20.476562 C 27.496094 20.410156 27.382812 20.320312 27.28125 20.203125 C 27.183594 20.089844 27.109375 19.960938 27.0625 19.820312 C 27.015625 19.675781 26.996094 19.53125 27.007812 19.378906 C 27.019531 19.230469 27.058594 19.085938 27.125 18.953125 C 27.191406 18.816406 27.28125 18.699219 27.394531 18.601562 C 27.511719 18.503906 27.636719 18.429688 27.78125 18.382812 C 27.925781 18.332031 28.070312 18.316406 28.222656 18.324219 Z M 28.222656 18.324219 " fill-opacity="1" fill-rule="nonzero"/><path fill="#ffffff" d="M 32.429688 19.5 C 32.597656 19.53125 32.75 19.59375 32.890625 19.6875 C 33.03125 19.78125 33.148438 19.898438 33.246094 20.039062 C 33.339844 20.175781 33.402344 20.332031 33.4375 20.496094 C 33.472656 20.660156 33.472656 20.828125 33.441406 20.992188 C 33.410156 21.160156 33.347656 21.3125 33.253906 21.453125 C 33.160156 21.597656 33.042969 21.714844 32.902344 21.808594 C 32.765625 21.902344 32.609375 21.96875 32.445312 22 C 32.28125 22.035156 32.113281 22.035156 31.949219 22.003906 C 31.78125 21.972656 31.628906 21.910156 31.488281 21.816406 C 31.34375 21.722656 31.226562 21.609375 31.132812 21.46875 C 31.039062 21.328125 30.972656 21.175781 30.941406 21.007812 C 30.90625 20.84375 30.90625 20.675781 30.9375 20.511719 C 30.96875 20.34375 31.03125 20.191406 31.125 20.050781 C 31.21875 19.910156 31.332031 19.792969 31.472656 19.695312 C 31.613281 19.601562 31.765625 19.539062 31.933594 19.503906 C 32.097656 19.46875 32.265625 19.46875 32.429688 19.5 Z M 32.429688 19.5 " fill-opacity="1" fill-rule="nonzero"/><path fill="#ffffff" d="M 36.214844 21.886719 C 36.386719 21.960938 36.539062 22.0625 36.671875 22.191406 C 36.800781 22.324219 36.902344 22.476562 36.976562 22.648438 C 37.046875 22.824219 37.082031 23 37.082031 23.1875 C 37.082031 23.375 37.046875 23.554688 36.976562 23.726562 C 36.902344 23.898438 36.800781 24.050781 36.671875 24.183594 C 36.539062 24.316406 36.386719 24.417969 36.214844 24.488281 C 36.042969 24.5625 35.863281 24.597656 35.675781 24.597656 C 35.488281 24.597656 35.308594 24.5625 35.136719 24.488281 C 34.964844 24.417969 34.8125 24.316406 34.679688 24.183594 C 34.546875 24.050781 34.445312 23.898438 34.375 23.726562 C 34.300781 23.554688 34.265625 23.375 34.265625 23.1875 C 34.265625 23 34.300781 22.824219 34.375 22.648438 C 34.445312 22.476562 34.546875 22.324219 34.679688 22.191406 C 34.8125 22.0625 34.964844 21.960938 35.136719 21.886719 C 35.308594 21.816406 35.488281 21.78125 35.675781 21.78125 C 35.863281 21.78125 36.042969 21.816406 36.214844 21.886719 Z M 36.214844 21.886719 " fill-opacity="1" fill-rule="nonzero"/><path fill="#ffffff" d="M 39.75 26.195312 C 39.796875 26.390625 39.804688 26.585938 39.773438 26.78125 C 39.738281 26.976562 39.671875 27.160156 39.566406 27.332031 C 39.460938 27.5 39.328125 27.644531 39.167969 27.757812 C 39.003906 27.875 38.828125 27.957031 38.632812 28.003906 C 38.441406 28.046875 38.246094 28.054688 38.046875 28.023438 C 37.851562 27.992188 37.667969 27.921875 37.5 27.820312 C 37.328125 27.714844 37.1875 27.582031 37.070312 27.417969 C 36.953125 27.257812 36.871094 27.078125 36.828125 26.886719 C 36.78125 26.691406 36.773438 26.496094 36.804688 26.300781 C 36.835938 26.101562 36.90625 25.921875 37.011719 25.75 C 37.117188 25.582031 37.25 25.4375 37.410156 25.320312 C 37.570312 25.207031 37.75 25.125 37.941406 25.078125 C 38.136719 25.03125 38.332031 25.027344 38.527344 25.058594 C 38.726562 25.089844 38.910156 25.15625 39.078125 25.261719 C 39.246094 25.367188 39.390625 25.5 39.507812 25.664062 C 39.625 25.824219 39.703125 26 39.75 26.195312 Z M 39.75 26.195312 " fill-opacity="1" fill-rule="nonzero"/><path fill="#ffffff" d="M 40.886719 29.425781 C 41.03125 29.570312 41.144531 29.738281 41.222656 29.925781 C 41.300781 30.113281 41.339844 30.3125 41.339844 30.515625 C 41.339844 30.71875 41.300781 30.914062 41.222656 31.105469 C 41.144531 31.292969 41.03125 31.460938 40.886719 31.605469 C 40.742188 31.746094 40.578125 31.859375 40.390625 31.9375 C 40.199219 32.015625 40.003906 32.054688 39.800781 32.054688 C 39.597656 32.054688 39.398438 32.015625 39.210938 31.9375 C 39.023438 31.859375 38.855469 31.746094 38.710938 31.605469 C 38.566406 31.460938 38.457031 31.292969 38.378906 31.105469 C 38.300781 30.914062 38.261719 30.71875 38.261719 30.515625 C 38.261719 30.3125 38.300781 30.117188 38.378906 29.925781 C 38.457031 29.738281 38.566406 29.570312 38.710938 29.425781 C 38.855469 29.28125 39.023438 29.171875 39.210938 29.09375 C 39.398438 29.015625 39.597656 28.976562 39.800781 28.976562 C 40.003906 28.976562 40.199219 29.015625 40.390625 29.09375 C 40.578125 29.171875 40.742188 29.28125 40.886719 29.425781 Z M 40.886719 29.425781 " fill-opacity="1" fill-rule="nonzero"/><path fill="#ffffff" d="M 41.460938 34.179688 C 41.539062 34.363281 41.578125 34.558594 41.578125 34.757812 C 41.578125 34.957031 41.539062 35.148438 41.460938 35.335938 C 41.386719 35.519531 41.277344 35.683594 41.136719 35.824219 C 40.996094 35.964844 40.832031 36.074219 40.644531 36.152344 C 40.460938 36.226562 40.269531 36.265625 40.070312 36.265625 C 39.871094 36.265625 39.675781 36.226562 39.492188 36.152344 C 39.308594 36.074219 39.144531 35.964844 39.003906 35.824219 C 38.863281 35.683594 38.753906 35.519531 38.675781 35.335938 C 38.597656 35.148438 38.5625 34.957031 38.5625 34.757812 C 38.5625 34.558594 38.597656 34.363281 38.675781 34.179688 C 38.753906 33.996094 38.863281 33.832031 39.003906 33.691406 C 39.144531 33.550781 39.308594 33.441406 39.492188 33.363281 C 39.675781 33.289062 39.871094 33.25 40.070312 33.25 C 40.269531 33.25 40.460938 33.289062 40.644531 33.363281 C 40.832031 33.441406 40.996094 33.550781 41.136719 33.691406 C 41.277344 33.832031 41.386719 33.996094 41.460938 34.179688 Z M 41.460938 34.179688 " fill-opacity="1" fill-rule="nonzero"/><path fill="#ffffff" d="M 39.082031 40.328125 C 38.289062 40.328125 37.644531 39.6875 37.644531 38.894531 C 37.644531 38.101562 38.289062 37.457031 39.082031 37.457031 C 39.875 37.457031 40.515625 38.101562 40.515625 38.894531 C 40.515625 39.6875 39.871094 40.328125 39.082031 40.328125 Z M 39.082031 40.328125 " fill-opacity="1" fill-rule="nonzero"/><path fill="#ffffff" d="M 36.914062 43.875 C 36.183594 43.875 35.589844 43.28125 35.589844 42.550781 C 35.589844 41.820312 36.183594 41.226562 36.914062 41.226562 C 37.644531 41.226562 38.238281 41.820312 38.238281 42.550781 C 38.238281 43.28125 37.644531 43.875 36.914062 43.875 Z M 36.914062 43.875 " fill-opacity="1" fill-rule="nonzero"/><path fill="#ffffff" d="M 34.914062 45.132812 C 34.949219 45.285156 34.957031 45.441406 34.929688 45.59375 C 34.90625 45.75 34.851562 45.890625 34.769531 46.027344 C 34.6875 46.160156 34.582031 46.269531 34.457031 46.363281 C 34.328125 46.453125 34.1875 46.519531 34.035156 46.554688 C 33.882812 46.589844 33.730469 46.59375 33.578125 46.570312 C 33.421875 46.546875 33.277344 46.492188 33.144531 46.410156 C 33.011719 46.328125 32.898438 46.222656 32.808594 46.09375 C 32.71875 45.96875 32.652344 45.828125 32.617188 45.675781 C 32.582031 45.523438 32.574219 45.371094 32.601562 45.214844 C 32.625 45.0625 32.679688 44.917969 32.761719 44.785156 C 32.84375 44.652344 32.949219 44.539062 33.074219 44.449219 C 33.203125 44.355469 33.34375 44.292969 33.496094 44.257812 C 33.648438 44.222656 33.800781 44.214844 33.953125 44.242188 C 34.109375 44.265625 34.253906 44.320312 34.386719 44.402344 C 34.519531 44.484375 34.632812 44.589844 34.722656 44.714844 C 34.816406 44.84375 34.878906 44.980469 34.914062 45.132812 Z M 34.914062 45.132812 " fill-opacity="1" fill-rule="nonzero"/><path fill="#ffffff" d="M 29.917969 48.21875 C 29.363281 48.21875 28.910156 47.769531 28.910156 47.210938 C 28.910156 46.660156 29.359375 46.207031 29.917969 46.207031 C 30.472656 46.207031 30.921875 46.65625 30.921875 47.210938 C 30.917969 47.765625 30.472656 48.21875 29.917969 48.21875 Z M 29.917969 48.21875 " fill-opacity="1" fill-rule="nonzero"/><path fill="#ffffff" d="M 26.519531 47.800781 C 26.519531 48.023438 26.441406 48.214844 26.28125 48.375 C 26.121094 48.535156 25.929688 48.613281 25.707031 48.613281 C 25.480469 48.613281 25.289062 48.535156 25.128906 48.375 C 24.96875 48.214844 24.890625 48.023438 24.890625 47.800781 C 24.890625 47.574219 24.96875 47.382812 25.128906 47.222656 C 25.289062 47.0625 25.480469 46.984375 25.707031 46.984375 C 25.929688 46.984375 26.121094 47.0625 26.28125 47.222656 C 26.441406 47.382812 26.519531 47.574219 26.519531 47.800781 Z M 26.519531 47.800781 " fill-opacity="1" fill-rule="nonzero"/><path fill="#ffffff" d="M 21.507812 47.746094 C 21.164062 47.746094 20.882812 47.464844 20.882812 47.121094 C 20.882812 46.773438 21.164062 46.496094 21.507812 46.496094 C 21.851562 46.496094 22.132812 46.773438 22.132812 47.121094 C 22.132812 47.464844 21.851562 47.746094 21.507812 47.746094 Z M 21.507812 47.746094 " fill-opacity="1" fill-rule="nonzero"/><path fill="#ffffff" d="M 17.699219 45.679688 C 17.453125 45.679688 17.253906 45.480469 17.253906 45.234375 C 17.253906 44.988281 17.453125 44.789062 17.699219 44.789062 C 17.941406 44.789062 18.140625 44.988281 18.140625 45.234375 C 18.140625 45.480469 17.941406 45.679688 17.699219 45.679688 Z M 17.699219 45.679688 " fill-opacity="1" fill-rule="nonzero"/><path fill="#ffffff" d="M 14.613281 42.601562 C 14.453125 42.601562 14.320312 42.46875 14.320312 42.308594 C 14.320312 42.144531 14.453125 42.015625 14.613281 42.015625 C 14.777344 42.015625 14.910156 42.144531 14.910156 42.308594 C 14.910156 42.46875 14.777344 42.601562 14.613281 42.601562 Z M 14.613281 42.601562 " fill-opacity="1" fill-rule="nonzero"/><path fill="#ffffff" d="M 12.527344 38.785156 C 12.425781 38.785156 12.34375 38.703125 12.34375 38.605469 C 12.34375 38.503906 12.425781 38.421875 12.527344 38.421875 C 12.628906 38.421875 12.710938 38.503906 12.710938 38.605469 C 12.710938 38.703125 12.628906 38.785156 12.527344 38.785156 Z M 12.527344 38.785156 " fill-opacity="1" fill-rule="nonzero"/><path fill="#ffffff" d="M 11.625 34.558594 C 11.566406 34.558594 11.515625 34.507812 11.515625 34.449219 C 11.515625 34.390625 11.566406 34.34375 11.625 34.34375 C 11.683594 34.34375 11.734375 34.390625 11.734375 34.449219 C 11.734375 34.507812 11.683594 34.558594 11.625 34.558594 Z M 11.625 34.558594 " fill-opacity="1" fill-rule="nonzero"/><path fill="#ffffff" d="M 12.070312 30.210938 C 12.070312 30.265625 12.046875 30.292969 11.992188 30.292969 C 11.9375 30.292969 11.910156 30.265625 11.910156 30.210938 C 11.910156 30.160156 11.9375 30.132812 11.992188 30.132812 C 12.046875 30.132812 12.070312 30.160156 12.070312 30.210938 Z M 12.070312 30.210938 " fill-opacity="1" fill-rule="nonzero"/><path fill="#ffffff" d="M 13.585938 26.433594 C 13.496094 26.433594 13.425781 26.359375 13.425781 26.273438 C 13.425781 26.183594 13.496094 26.109375 13.585938 26.109375 C 13.671875 26.109375 13.746094 26.183594 13.746094 26.273438 C 13.746094 26.359375 13.671875 26.433594 13.585938 26.433594 Z M 13.585938 26.433594 " fill-opacity="1" fill-rule="nonzero"/><path fill="#ffffff" d="M 16.273438 23.355469 C 16.066406 23.355469 15.894531 23.1875 15.894531 22.976562 C 15.894531 22.769531 16.066406 22.601562 16.273438 22.601562 C 16.484375 22.601562 16.652344 22.769531 16.652344 22.976562 C 16.652344 23.1875 16.484375 23.355469 16.273438 23.355469 Z M 16.273438 23.355469 " fill-opacity="1" fill-rule="nonzero"/><path fill="#ffffff" d="M 20.289062 20.144531 C 20.421875 20.277344 20.484375 20.4375 20.484375 20.621094 C 20.484375 20.808594 20.421875 20.96875 20.289062 21.097656 C 20.15625 21.230469 19.996094 21.296875 19.8125 21.296875 C 19.625 21.296875 19.464844 21.230469 19.335938 21.097656 C 19.203125 20.96875 19.136719 20.808594 19.136719 20.621094 C 19.136719 20.4375 19.203125 20.277344 19.335938 20.144531 C 19.464844 20.011719 19.625 19.949219 19.8125 19.949219 C 19.996094 19.949219 20.15625 20.011719 20.289062 20.144531 Z M 20.289062 20.144531 " fill-opacity="1" fill-rule="nonzero"/><path fill="#ffffff" d="M 23.886719 20.359375 C 23.363281 20.359375 22.9375 19.933594 22.9375 19.410156 C 22.9375 18.886719 23.363281 18.460938 23.886719 18.460938 C 24.410156 18.460938 24.835938 18.886719 24.835938 19.410156 C 24.835938 19.933594 24.410156 20.359375 23.886719 20.359375 Z M 23.886719 20.359375 " fill-opacity="1" fill-rule="nonzero"/><path fill="#ffffff" d="M 18.65625 26.734375 C 18.027344 26.734375 17.519531 26.226562 17.519531 25.597656 C 17.519531 24.96875 18.027344 24.460938 18.65625 24.460938 C 19.285156 24.460938 19.792969 24.96875 19.792969 25.597656 C 19.792969 26.226562 19.28125 26.734375 18.65625 26.734375 Z M 18.65625 26.734375 " fill-opacity="1" fill-rule="nonzero"/><path fill="#ffffff" d="M 23.460938 22.9375 C 23.527344 23.097656 23.558594 23.265625 23.558594 23.441406 C 23.558594 23.617188 23.527344 23.785156 23.460938 23.945312 C 23.390625 24.109375 23.296875 24.25 23.171875 24.375 C 23.050781 24.496094 22.90625 24.59375 22.746094 24.660156 C 22.585938 24.726562 22.417969 24.761719 22.242188 24.761719 C 22.066406 24.761719 21.898438 24.726562 21.738281 24.660156 C 21.574219 24.59375 21.433594 24.496094 21.308594 24.375 C 21.183594 24.25 21.089844 24.109375 21.023438 23.945312 C 20.957031 23.785156 20.921875 23.617188 20.921875 23.441406 C 20.921875 23.265625 20.957031 23.097656 21.023438 22.9375 C 21.089844 22.773438 21.183594 22.632812 21.308594 22.507812 C 21.433594 22.386719 21.574219 22.289062 21.738281 22.222656 C 21.898438 22.15625 22.066406 22.121094 22.242188 22.121094 C 22.417969 22.121094 22.585938 22.15625 22.746094 22.222656 C 22.90625 22.289062 23.050781 22.386719 23.171875 22.507812 C 23.296875 22.632812 23.390625 22.773438 23.460938 22.9375 Z M 23.460938 22.9375 " fill-opacity="1" fill-rule="nonzero"/><path fill="#ffffff" d="M 26.378906 24.304688 C 25.566406 24.304688 24.90625 23.644531 24.90625 22.828125 C 24.90625 22.015625 25.566406 21.351562 26.378906 21.351562 C 27.195312 21.351562 27.855469 22.015625 27.855469 22.828125 C 27.855469 23.644531 27.195312 24.304688 26.378906 24.304688 Z M 26.378906 24.304688 " fill-opacity="1" fill-rule="nonzero"/><path fill="#ffffff" d="M 30.566406 22.308594 C 30.773438 22.324219 30.964844 22.378906 31.144531 22.472656 C 31.328125 22.566406 31.484375 22.691406 31.617188 22.847656 C 31.746094 23 31.84375 23.175781 31.90625 23.371094 C 31.96875 23.566406 31.992188 23.765625 31.976562 23.96875 C 31.957031 24.171875 31.902344 24.363281 31.808594 24.542969 C 31.714844 24.726562 31.589844 24.882812 31.4375 25.015625 C 31.28125 25.148438 31.105469 25.242188 30.910156 25.304688 C 30.714844 25.367188 30.519531 25.390625 30.3125 25.375 C 30.109375 25.355469 29.917969 25.300781 29.738281 25.207031 C 29.554688 25.117188 29.398438 24.992188 29.265625 24.835938 C 29.136719 24.679688 29.039062 24.503906 28.976562 24.308594 C 28.914062 24.117188 28.890625 23.917969 28.90625 23.714844 C 28.925781 23.511719 28.980469 23.316406 29.074219 23.136719 C 29.167969 22.953125 29.289062 22.796875 29.445312 22.667969 C 29.601562 22.535156 29.777344 22.4375 29.972656 22.375 C 30.167969 22.3125 30.363281 22.289062 30.566406 22.308594 Z M 30.566406 22.308594 " fill-opacity="1" fill-rule="nonzero"/><path fill="#ffffff" d="M 34.042969 24.855469 C 34.238281 24.886719 34.417969 24.957031 34.589844 25.058594 C 34.757812 25.164062 34.898438 25.296875 35.015625 25.457031 C 35.132812 25.617188 35.210938 25.796875 35.257812 25.988281 C 35.304688 26.183594 35.308594 26.375 35.277344 26.570312 C 35.246094 26.769531 35.179688 26.949219 35.074219 27.117188 C 34.96875 27.289062 34.835938 27.429688 34.675781 27.546875 C 34.515625 27.660156 34.339844 27.742188 34.144531 27.789062 C 33.953125 27.832031 33.757812 27.839844 33.5625 27.808594 C 33.367188 27.777344 33.183594 27.710938 33.015625 27.605469 C 32.847656 27.5 32.703125 27.367188 32.589844 27.207031 C 32.472656 27.046875 32.390625 26.871094 32.347656 26.675781 C 32.300781 26.484375 32.292969 26.289062 32.324219 26.09375 C 32.355469 25.898438 32.425781 25.714844 32.527344 25.546875 C 32.632812 25.378906 32.765625 25.234375 32.925781 25.117188 C 33.089844 25.003906 33.265625 24.921875 33.457031 24.875 C 33.652344 24.832031 33.84375 24.824219 34.042969 24.855469 Z M 34.042969 24.855469 " fill-opacity="1" fill-rule="nonzero"/><path fill="#ffffff" d="M 35.957031 31.296875 C 35.195312 31.296875 34.582031 30.679688 34.582031 29.917969 C 34.582031 29.160156 35.195312 28.542969 35.957031 28.542969 C 36.714844 28.542969 37.332031 29.160156 37.332031 29.917969 C 37.332031 30.679688 36.714844 31.296875 35.957031 31.296875 Z M 35.957031 31.296875 " fill-opacity="1" fill-rule="nonzero"/><path fill="#ffffff" d="M 36.570312 35.257812 C 35.90625 35.257812 35.371094 34.71875 35.371094 34.058594 C 35.371094 33.394531 35.90625 32.859375 36.570312 32.859375 C 37.230469 32.859375 37.769531 33.394531 37.769531 34.058594 C 37.769531 34.71875 37.230469 35.257812 36.570312 35.257812 Z M 36.570312 35.257812 " fill-opacity="1" fill-rule="nonzero"/><path fill="#ffffff" d="M 36.53125 38.117188 C 36.53125 38.386719 36.433594 38.617188 36.246094 38.804688 C 36.054688 38.996094 35.828125 39.089844 35.558594 39.089844 C 35.289062 39.089844 35.058594 38.996094 34.871094 38.804688 C 34.679688 38.617188 34.585938 38.386719 34.585938 38.117188 C 34.585938 37.851562 34.679688 37.621094 34.871094 37.429688 C 35.058594 37.242188 35.289062 37.144531 35.558594 37.144531 C 35.828125 37.144531 36.054688 37.242188 36.246094 37.429688 C 36.433594 37.621094 36.53125 37.851562 36.53125 38.117188 Z M 36.53125 38.117188 " fill-opacity="1" fill-rule="nonzero"/><path fill="#ffffff" d="M 33.125 40.761719 C 33.324219 40.78125 33.484375 40.863281 33.613281 41.015625 C 33.742188 41.164062 33.796875 41.339844 33.78125 41.539062 C 33.765625 41.734375 33.679688 41.898438 33.53125 42.027344 C 33.378906 42.152344 33.203125 42.210938 33.007812 42.195312 C 32.808594 42.175781 32.644531 42.09375 32.519531 41.941406 C 32.390625 41.792969 32.335938 41.617188 32.351562 41.417969 C 32.367188 41.222656 32.449219 41.058594 32.601562 40.929688 C 32.753906 40.804688 32.925781 40.746094 33.125 40.761719 Z M 33.125 40.761719 " fill-opacity="1" fill-rule="nonzero"/><path fill="#ffffff" d="M 29.480469 44.109375 C 29.214844 44.109375 29.003906 43.894531 29.003906 43.632812 C 29.003906 43.371094 29.21875 43.160156 29.480469 43.160156 C 29.742188 43.160156 29.953125 43.371094 29.953125 43.632812 C 29.953125 43.894531 29.742188 44.109375 29.480469 44.109375 Z M 29.480469 44.109375 " fill-opacity="1" fill-rule="nonzero"/><path fill="#ffffff" d="M 25.339844 44.523438 C 25.1875 44.523438 25.0625 44.402344 25.0625 44.246094 C 25.0625 44.09375 25.1875 43.96875 25.339844 43.96875 C 25.492188 43.96875 25.617188 44.09375 25.617188 44.246094 C 25.617188 44.402344 25.492188 44.523438 25.339844 44.523438 Z M 25.339844 44.523438 " fill-opacity="1" fill-rule="nonzero"/><path fill="#ffffff" d="M 21.28125 43.382812 C 21.199219 43.382812 21.136719 43.316406 21.136719 43.234375 C 21.136719 43.15625 21.199219 43.089844 21.28125 43.089844 C 21.359375 43.089844 21.425781 43.15625 21.425781 43.234375 C 21.425781 43.316406 21.359375 43.382812 21.28125 43.382812 Z M 21.28125 43.382812 " fill-opacity="1" fill-rule="nonzero"/><path fill="#ffffff" d="M 18 40.742188 C 18 40.796875 17.972656 40.824219 17.917969 40.824219 C 17.867188 40.824219 17.839844 40.796875 17.839844 40.742188 C 17.839844 40.6875 17.867188 40.664062 17.917969 40.664062 C 17.972656 40.664062 18 40.6875 18 40.742188 Z M 18 40.742188 " fill-opacity="1" fill-rule="nonzero"/><path fill="#ffffff" d="M 15.765625 37.328125 C 15.671875 37.328125 15.59375 37.25 15.59375 37.15625 C 15.59375 37.0625 15.671875 36.984375 15.765625 36.984375 C 15.859375 36.984375 15.933594 37.0625 15.933594 37.15625 C 15.933594 37.25 15.859375 37.328125 15.765625 37.328125 Z M 15.765625 37.328125 " fill-opacity="1" fill-rule="nonzero"/><path fill="#ffffff" d="M 15.152344 33.5 C 14.882812 33.5 14.664062 33.285156 14.664062 33.015625 C 14.664062 32.75 14.882812 32.53125 15.152344 32.53125 C 15.417969 32.53125 15.636719 32.75 15.636719 33.015625 C 15.636719 33.285156 15.417969 33.5 15.152344 33.5 Z M 15.152344 33.5 " fill-opacity="1" fill-rule="nonzero"/><path fill="#ffffff" d="M 16.164062 29.828125 C 15.679688 29.828125 15.289062 29.4375 15.289062 28.957031 C 15.289062 28.476562 15.679688 28.085938 16.164062 28.085938 C 16.644531 28.085938 17.03125 28.476562 17.03125 28.957031 C 17.035156 29.4375 16.644531 29.828125 16.164062 29.828125 Z M 16.164062 29.828125 " fill-opacity="1" fill-rule="nonzero"/></svg>